<svg width="18" height="18" viewBox="0 0 18 18" fill="none" xmlns="http://www.w3.org/2000/svg">
<path d="M9 17C13.4183 17 17 13.4183 17 9C17 4.58172 13.4183 1 9 1C4.58172 1 1 4.58172 1 9C1 13.4183 4.58172 17 9 17Z" stroke="white" stroke-linecap="round" stroke-linejoin="round"/>
<path d="M8.99999 5.5L5.67499 7.91667L6.94165 11.8333H11.0583L12.325 7.91667L8.99999 5.5Z" stroke="white" stroke-linecap="round" stroke-linejoin="round"/>
<path d="M9 3.66663V5.49996" stroke="white" stroke-linecap="round" stroke-linejoin="round"/>
<path d="M11.9166 1.54993L8.99998 3.66659L6.08331 1.54993" stroke="white" stroke-linecap="round" stroke-linejoin="round"/>
<path d="M3.92499 7.34998L5.67499 7.91664" stroke="white" stroke-linecap="round" stroke-linejoin="round"/>
<path d="M2.81663 3.92493L3.92497 7.34993L1.0083 9.47493" stroke="white" stroke-linecap="round" stroke-linejoin="round"/>
<path d="M5.8667 13.3167L6.9417 11.8334" stroke="white" stroke-linecap="round" stroke-linejoin="round"/>
<path d="M2.2583 13.3168H5.86663L6.9833 16.7418" stroke="white" stroke-linecap="round" stroke-linejoin="round"/>
<path d="M12.1334 13.3167L11.0583 11.8334" stroke="white" stroke-linecap="round" stroke-linejoin="round"/>
<path d="M11.0167 16.7418L12.1333 13.3168H15.7417" stroke="white" stroke-linecap="round" stroke-linejoin="round"/>
<path d="M14.075 7.34998L12.325 7.91664" stroke="white" stroke-linecap="round" stroke-linejoin="round"/>
<path d="M16.9917 9.47493L14.075 7.34993L15.1833 3.92493" stroke="white" stroke-linecap="round" stroke-linejoin="round"/>
</svg>
