<svg width="16" height="16" viewBox="0 0 16 16" fill="none" xmlns="http://www.w3.org/2000/svg">
<path fill-rule="evenodd" clip-rule="evenodd" d="M0 0H16V16H0V0Z" fill="white"/>
<path fill-rule="evenodd" clip-rule="evenodd" d="M6.96623 2.12846C6.57967 2.2074 6.16846 2.38055 6.16846 2.38055C6.37207 2.10322 6.78536 1.76348 6.78536 1.76348C6.67164 1.54982 6.57096 1.23348 6.57096 1.23348C6.57096 1.23348 7.04891 1.25971 7.42302 1.38115C7.42302 1.38115 8.0586 1.03277 8.71717 1.02206C8.71717 1.02206 8.23714 1.29922 8.0332 1.55729C8.08732 1.58576 8.47122 1.70064 8.77021 1.87687C8.77021 1.87687 8.22967 1.89214 7.73363 1.96004C7.73363 1.96004 7.55898 2.2064 7.41131 2.76711C7.41123 2.76711 7.1569 2.48696 6.96623 2.12846Z" fill="black"/>
<path fill-rule="evenodd" clip-rule="evenodd" d="M9.53422 2.59271C9.20692 2.22865 8.77014 1.87687 8.77014 1.87687C9.17189 1.88259 9.76813 2.11966 9.76813 2.11966C9.88467 1.89936 9.96627 1.59622 9.96627 1.59622C9.96627 1.59622 10.1944 1.98229 10.298 2.40919C10.298 2.40919 10.7715 2.69274 11.1289 3.16729C11.1289 3.16729 10.756 3.08951 10.4815 3.09084C10.4807 3.1521 10.5822 3.65578 10.5601 4.00208C10.5601 4.00208 10.2561 3.50811 9.97091 3.09665C9.97091 3.09665 9.51247 3.10495 9.03078 3.2366C9.03086 3.2366 9.30064 2.92499 9.53422 2.59271ZM10.0587 4.96579C10.3001 4.55881 10.5602 4.00217 10.5602 4.00217C10.6399 4.37445 10.6471 4.84941 10.6471 4.84941C10.8866 4.79894 11.3105 4.59558 11.3105 4.59558C11.3105 4.59558 11.1216 5.0986 10.6983 5.48433C10.6983 5.48433 10.7411 5.78573 10.7461 6.18341C10.7461 6.18341 10.4467 6.05002 10.1984 5.90086C10.1456 5.93165 9.84549 6.13576 9.33857 6.24068C9.33857 6.24068 9.55322 5.90534 9.73078 5.57779C9.73078 5.57779 9.37733 5.34496 9.09735 4.96338C9.09735 4.9633 9.64171 5.03203 10.0587 4.96579Z" fill="black"/>
<path fill-rule="evenodd" clip-rule="evenodd" d="M8.3512 4.13529C8.72149 4.59399 9.09726 4.96337 9.09726 4.96337C8.48334 4.87214 7.98489 4.69999 7.98489 4.69999C7.73554 5.09975 7.46344 5.5645 7.46344 5.5645C7.46344 5.5645 7.31129 5.06032 7.28556 4.48807C7.28556 4.48807 6.97719 4.38016 6.40884 4.15638C6.40884 4.15638 6.80088 3.913 7.27535 3.78028C7.24763 3.72557 7.32034 3.04525 7.41131 2.76718C7.41131 2.76718 7.68797 3.21567 7.91325 3.54537C7.91325 3.54537 8.35418 3.39579 9.03094 3.23658C9.03085 3.23658 8.66056 3.70648 8.3512 4.13529ZM4.98039 5.8703C4.9431 5.80016 4.90836 5.7287 4.87621 5.65606C4.88269 5.41276 4.90443 5.09942 4.96669 4.85637C4.96669 4.85637 4.78831 4.73261 4.60387 4.57174C4.60179 4.54377 4.59939 4.51555 4.59781 4.48724C4.70373 4.44773 4.92859 4.36829 5.12498 4.32281C5.14748 4.26561 5.26975 3.87158 5.50607 3.59974C5.50607 3.59974 5.522 3.8676 5.58625 4.22419C5.58625 4.22419 5.95928 4.13969 6.40876 4.15621C6.40876 4.15621 5.99224 4.48425 5.72993 4.81752C5.82506 5.20176 6.01647 5.57056 6.01647 5.57056C5.73043 5.4087 5.42787 5.19429 5.42787 5.19429C5.32163 5.32063 5.10805 5.66145 4.98039 5.8703ZM7.35993 7.61501C7.31364 7.60667 7.26755 7.59718 7.22173 7.58654C7.06559 7.41912 6.82745 7.14577 6.64558 6.85849C6.64558 6.85849 5.97472 6.80437 5.502 6.59735C5.502 6.59735 5.89296 6.52389 6.32227 6.30251C6.29454 6.24781 6.13086 5.946 6.01639 5.57073C6.01639 5.57073 6.42644 5.902 6.73025 6.09591C6.73025 6.09591 7.11631 5.87378 7.46336 5.5645C7.46336 5.5645 7.37537 5.99198 7.32665 6.48023C7.55087 6.60828 7.77695 6.73305 8.00481 6.8545C7.65477 6.90547 7.31021 6.89476 7.31021 6.89476C7.2966 7.16586 7.33304 7.45082 7.35993 7.61501ZM10.2785 6.74328C10.2785 6.74328 9.81585 6.86554 9.36429 6.88248C9.36429 6.88248 9.36089 6.57444 9.33848 6.24067C9.33848 6.24067 9.09867 6.581 8.78565 6.90829C8.41603 6.90298 8.00481 6.85459 8.00481 6.85459C8.14583 6.99811 8.2909 7.13759 8.43985 7.27286C8.16144 7.50951 7.90412 7.66764 7.90412 7.66764C7.94065 7.66813 7.97783 7.66838 8.01461 7.66788C8.8934 7.65352 9.6876 7.30374 10.2785 6.74328Z" fill="black"/>
<path fill-rule="evenodd" clip-rule="evenodd" d="M4.63849 3.74302C4.63849 3.74302 4.88568 3.43473 5.17421 3.18438C5.17421 3.18438 5.27067 3.36251 5.50607 3.59983C5.50607 3.59983 5.50782 3.30981 5.54152 2.85476C5.80515 2.62168 6.16847 2.38055 6.16847 2.38055C5.86715 2.36137 5.64229 2.37607 5.64229 2.37607C5.71218 2.03076 5.87006 1.66022 5.87006 1.66022C5.22941 2.16822 4.77852 2.90457 4.63849 3.74302ZM11.1084 12.6713C10.6765 12.6713 10.4142 12.3095 10.4142 11.9127C10.4142 11.5004 10.72 11.2016 11.1191 11.2016C11.5614 11.2016 11.8279 11.5528 11.8279 11.9387C11.8279 12.3959 11.4964 12.6713 11.1084 12.6713ZM11.0843 11.4095C10.8155 11.4095 10.7352 11.6653 10.7352 11.8386C10.7352 12.0921 10.848 12.4628 11.1581 12.4628C11.3792 12.4628 11.5071 12.266 11.5071 12.0296C11.5071 11.7783 11.4097 11.4095 11.0843 11.4095ZM8.46567 12.4654C8.46567 12.5434 8.48061 12.5714 8.60653 12.5957V12.6497C8.4699 12.6432 8.38507 12.6367 8.30514 12.6367C8.2247 12.6367 8.14029 12.6432 8.04491 12.6497V12.5952C8.12925 12.5803 8.14469 12.5434 8.14469 12.4413V11.3814C8.14469 11.3204 8.11862 11.292 8.04491 11.2899V11.2295H8.68647C9.08772 11.2295 9.23315 11.4204 9.23315 11.6721C9.23315 11.9411 9.0292 12.106 8.74955 12.106C8.64339 12.106 8.48742 12.0516 8.48742 12.006C8.48742 11.9866 8.50037 11.9866 8.51987 11.9866C8.53938 11.9866 8.56735 11.993 8.59558 11.993C8.82318 11.993 8.91233 11.8651 8.91233 11.6852C8.91233 11.4898 8.79072 11.4205 8.59973 11.4205L8.46567 11.4349V12.4654ZM9.65225 11.368C9.65225 11.3075 9.62635 11.279 9.55256 11.277V11.2206C9.64785 11.227 9.73218 11.2335 9.81262 11.2335C9.89305 11.2335 9.97747 11.227 10.0727 11.2206V11.277C9.99922 11.2789 9.97299 11.3075 9.97299 11.368V12.5043C9.97299 12.5652 9.99922 12.5933 10.0727 12.5957V12.6497C9.97755 12.6432 9.89288 12.6367 9.81262 12.6367C9.73218 12.6367 9.64793 12.6432 9.55256 12.6497V12.5957C9.62635 12.5933 9.65225 12.5653 9.65225 12.5043V11.368ZM12.2627 11.367C12.2627 11.3065 12.2365 11.278 12.1627 11.276V11.2191C12.2582 11.2254 12.3428 11.2325 12.4231 11.2325C12.4816 11.2325 12.5466 11.2325 12.6141 11.2191L13.2125 12.1891H13.2167V11.3975C13.2167 11.2845 13.1452 11.276 13.0867 11.276V11.2191C13.1582 11.2254 13.2274 11.2325 13.2949 11.2325C13.3664 11.2325 13.4379 11.2254 13.5076 11.2191V11.276C13.4336 11.2779 13.4075 11.3065 13.4075 11.367V12.6497H13.1776L12.4578 11.5299H12.4536V12.4728C12.4536 12.5858 12.5247 12.5942 12.5835 12.5942V12.6487C12.5121 12.6422 12.4425 12.6353 12.3754 12.6353C12.3039 12.6353 12.2322 12.6422 12.1627 12.6487V12.5942C12.2365 12.5923 12.2627 12.5638 12.2627 12.5033V11.367ZM13.9507 12.1566C13.9951 12.3999 14.1549 12.5139 14.394 12.5139C14.5253 12.5139 14.7153 12.476 14.7153 12.3085C14.7153 12.1746 14.5769 12.139 14.4743 12.1076L14.3156 12.0606C14.088 11.9936 13.8603 11.8977 13.8603 11.6344C13.8603 11.2886 14.1951 11.1836 14.5276 11.1836C14.6687 11.1836 14.8134 11.2081 14.943 11.2551C14.943 11.416 14.9519 11.5518 14.9607 11.6679H14.9049C14.8581 11.4625 14.6909 11.3665 14.49 11.3665C14.378 11.3665 14.1909 11.4025 14.1909 11.5563C14.1909 11.6793 14.2977 11.7147 14.3893 11.7414L14.6236 11.8088C14.849 11.8731 15.0589 11.9561 15.0589 12.246C15.0589 12.5403 14.762 12.6968 14.3982 12.6968C14.2353 12.6968 14.0635 12.6704 13.914 12.6163C13.914 12.4399 13.9073 12.2864 13.896 12.1566H13.9507ZM2.67696 11.368C2.67696 11.3075 2.65107 11.279 2.57702 11.277V11.2206C2.67248 11.227 2.75715 11.2335 2.83741 11.2335C2.91768 11.2335 3.00202 11.227 3.09756 11.2206V11.277C3.02385 11.2789 2.99812 11.3075 2.99812 11.368L2.99787 11.7973L3.52255 11.7978V11.368C3.52255 11.3075 3.49682 11.279 3.42311 11.277V11.2206C3.51832 11.227 3.60307 11.2335 3.68317 11.2335C3.76335 11.2335 3.8481 11.227 3.94306 11.2206V11.277C3.8696 11.2789 3.84354 11.3075 3.84354 11.368V12.5043C3.84354 12.5652 3.86952 12.5933 3.94306 12.5952V12.6507C3.84802 12.6444 3.76335 12.6377 3.68292 12.6377C3.60307 12.6377 3.51832 12.6444 3.42286 12.6507V12.5952C3.49682 12.5933 3.52255 12.5653 3.52255 12.5043V12.0056H2.99787V12.5043C2.99787 12.5652 3.02385 12.5933 3.09764 12.5952V12.6507C3.00218 12.6444 2.91777 12.6377 2.8375 12.6377C2.75731 12.6377 2.67256 12.6444 2.57711 12.6507V12.5952C2.65082 12.5933 2.67705 12.5653 2.67705 12.5043V11.368H2.67696ZM4.74582 12.0291C4.80201 11.8757 4.87141 11.7043 4.92121 11.5309H4.92569C4.9691 11.7498 5.00596 11.8888 5.05145 12.0291H4.74582ZM4.2208 12.6498C4.29684 12.6433 4.37071 12.6368 4.44641 12.6368C4.52012 12.6368 4.59616 12.6433 4.66978 12.6498V12.5953C4.59807 12.5908 4.56777 12.5654 4.56777 12.5259C4.56777 12.5044 4.57424 12.4804 4.58528 12.4499L4.68041 12.1941H5.10316L5.17264 12.405C5.18368 12.433 5.19438 12.4829 5.19438 12.513C5.19438 12.563 5.16616 12.5804 5.0859 12.5953V12.6498C5.17911 12.6433 5.27233 12.6368 5.36571 12.6368C5.45644 12.6368 5.5499 12.6433 5.64104 12.6498V12.5953C5.57613 12.5783 5.54334 12.5499 5.51089 12.4545L5.11188 11.2207C5.04456 11.2272 4.97516 11.2337 4.90793 11.2337C4.84094 11.2337 4.77346 11.2272 4.70423 11.2207V11.2772C4.76267 11.2772 4.78674 11.3117 4.78674 11.3338C4.78674 11.3552 4.77122 11.3857 4.75852 11.4181L4.33344 12.4956C4.31178 12.5525 4.28355 12.587 4.22055 12.5954V12.6498H4.2208ZM6.07874 11.5719C6.08098 11.5114 6.08496 11.4505 6.08496 11.3641C6.08496 11.2965 6.06994 11.2881 5.9876 11.277V11.2206C6.05251 11.227 6.1307 11.2335 6.20897 11.2335C6.28692 11.2335 6.36511 11.227 6.44305 11.2206L6.82256 12.2259L7.16264 11.2206C7.23892 11.227 7.31263 11.2335 7.3885 11.2335C7.4642 11.2335 7.54015 11.227 7.61386 11.2206V11.277C7.53816 11.2835 7.52712 11.3075 7.52712 11.366C7.52712 11.4269 7.53575 11.5244 7.54214 11.5978L7.61187 12.5239C7.61618 12.5803 7.67885 12.5887 7.72235 12.5952V12.6496C7.62888 12.6431 7.53376 12.6367 7.44046 12.6367C7.345 12.6367 7.25187 12.6431 7.16255 12.6496V12.5952C7.26905 12.5822 7.29727 12.5627 7.29727 12.4632C7.29727 12.4108 7.29055 12.3134 7.28432 12.2419L7.23427 11.5958H7.23004L6.86796 12.6616H6.68585L6.27156 11.5829H6.26699L6.24981 12.2179C6.24782 12.3309 6.24325 12.3894 6.24325 12.4478C6.24325 12.5563 6.25405 12.5803 6.38428 12.5952V12.6496C6.29754 12.6431 6.21727 12.6367 6.13485 12.6367C6.05491 12.6367 5.9744 12.6431 5.90724 12.6496V12.5952C5.99191 12.5887 6.02661 12.5693 6.03092 12.4783L6.07874 11.5719ZM2.25039 12.5703C2.10198 12.6843 1.88915 12.7299 1.7502 12.7299C1.23323 12.7299 0.941132 12.329 0.941132 11.9178C0.941132 11.4975 1.23323 11.0907 1.79344 11.0913C1.98959 11.0913 2.13028 11.1286 2.1854 11.1502C2.1854 11.3145 2.1942 11.473 2.2064 11.6299H2.14365C2.10546 11.4295 1.96551 11.3232 1.76447 11.3232C1.49188 11.3232 1.28121 11.538 1.28121 11.9008C1.28121 12.1742 1.50599 12.4835 1.82208 12.4835C1.95605 12.4835 2.14871 12.4101 2.27812 12.3012L2.25039 12.5703ZM4.59782 13.4338C4.59782 13.387 4.57756 13.3649 4.52087 13.3634V13.3173C4.59458 13.3228 4.65974 13.3274 4.7215 13.3274C4.79197 13.3274 4.89423 13.3228 4.94263 13.3173V13.3634C4.85721 13.3668 4.84551 13.4088 4.84551 13.4553V14.2753H5.15504C5.26569 14.2753 5.31093 14.2249 5.33923 14.0974H5.39368C5.37343 14.2063 5.355 14.3138 5.35326 14.4228H4.52087V14.3767C4.57756 14.3752 4.59782 14.3532 4.59782 14.3062V13.4338ZM5.66321 13.4393C5.66321 13.3924 5.64295 13.3704 5.58626 13.3689V13.3233H6.43193C6.43288 13.4091 6.43731 13.4948 6.44521 13.5803H6.39939C6.38271 13.4882 6.3593 13.4563 6.26899 13.4563H5.91073V13.78H6.13335C6.20848 13.78 6.22026 13.7545 6.23022 13.6946H6.27596C6.26998 13.7476 6.26663 13.8008 6.26592 13.8541C6.26592 13.899 6.2709 13.9725 6.27596 14.013H6.23022C6.22018 13.9525 6.20848 13.9276 6.13335 13.9276H5.91073V14.2753H6.28725C6.37773 14.2753 6.40595 14.2448 6.43458 14.1044H6.49037C6.47843 14.2101 6.47175 14.3164 6.47036 14.4228H5.58626V14.3767C5.64295 14.3752 5.66321 14.3532 5.66321 14.3062V13.4393ZM6.69116 14.3773C6.73955 14.3703 6.76138 14.3438 6.77815 14.3003L7.10644 13.4709C7.11648 13.4452 7.12819 13.4224 7.12819 13.4059C7.12819 13.3889 7.10959 13.362 7.06444 13.362V13.3164C7.11789 13.3215 7.16994 13.3264 7.22182 13.3264C7.27378 13.3264 7.32724 13.3214 7.37928 13.3164L7.68724 14.2689C7.71255 14.3419 7.73745 14.3639 7.78767 14.3774V14.423C7.7172 14.4179 7.64548 14.4129 7.57509 14.4129C7.50313 14.4129 7.43116 14.418 7.35919 14.423V14.3774C7.4212 14.3654 7.44286 14.3519 7.44286 14.314C7.44286 14.2905 7.4344 14.2519 7.4261 14.2305L7.37248 14.0685H7.04609L6.97238 14.2653C6.96392 14.2883 6.95885 14.3068 6.95885 14.3239C6.95885 14.3533 6.98234 14.3738 7.03754 14.3774V14.423C6.9806 14.4179 6.92217 14.4129 6.86514 14.4129C6.80637 14.4129 6.74976 14.418 6.69099 14.423V14.3773H6.69116ZM7.33222 13.9415C7.29727 13.833 7.26855 13.7262 7.23502 13.5573H7.23178C7.19335 13.6907 7.13964 13.8232 7.09615 13.9415H7.33222ZM8.68323 14.031C8.68323 13.964 8.65293 13.9609 8.57781 13.9595V13.9031C8.64638 13.9086 8.71511 13.9136 8.78533 13.9136C8.86086 13.9136 8.93449 13.9086 9.0097 13.9031V13.956C8.95101 13.9576 8.92104 13.9725 8.92104 14.048V14.4229H8.82376L8.78533 14.3104C8.67991 14.4093 8.56918 14.4443 8.45554 14.4443C8.1407 14.4443 7.93983 14.1849 7.93983 13.8837C7.93983 13.5204 8.1827 13.3004 8.54428 13.3004C8.65991 13.3004 8.78442 13.322 8.8744 13.3783C8.8744 13.4603 8.8778 13.5549 8.88461 13.6702H8.8363C8.81471 13.5213 8.67319 13.4479 8.5344 13.4479C8.3014 13.4479 8.18777 13.6258 8.18777 13.8417C8.18777 14.0495 8.30497 14.2838 8.49904 14.2838C8.61807 14.2838 8.68323 14.2285 8.68323 14.1514V14.031ZM9.34637 13.4338C9.34637 13.387 9.32612 13.3649 9.26951 13.3634V13.3173C9.33338 13.3238 9.39754 13.3272 9.46175 13.3274C9.54899 13.3274 9.61772 13.3228 9.6847 13.3173V13.3634C9.61241 13.3668 9.59423 13.3799 9.59423 13.4452V14.0709C9.59423 14.2604 9.673 14.2967 9.80855 14.2967C9.9441 14.2967 10.0229 14.2569 10.0229 14.0709V13.4452C10.0229 13.3799 10.0045 13.3668 9.93223 13.3634V13.3173C9.99955 13.3228 10.0679 13.3274 10.1552 13.3274C10.2254 13.3274 10.2941 13.3228 10.3476 13.3173V13.3634C10.2908 13.3649 10.2706 13.3869 10.2706 13.4338V14.0361C10.2706 14.3459 10.1099 14.4443 9.80855 14.4443C9.50699 14.4443 9.34637 14.3458 9.34637 14.0596V13.4338ZM10.7019 13.4393C10.7019 13.3924 10.6821 13.3704 10.625 13.3689V13.3233H11.4709C11.4727 13.4152 11.4758 13.4898 11.484 13.5803H11.4383C11.4216 13.4882 11.3981 13.4563 11.3076 13.4563H10.95V13.7752H11.1723C11.2475 13.7752 11.2593 13.75 11.2695 13.6898H11.315C11.3092 13.7425 11.3058 13.7956 11.3049 13.8486C11.3049 13.894 11.3102 13.9675 11.315 14.008H11.2695C11.2593 13.9475 11.2475 13.9226 11.1723 13.9226H10.95V14.2754H11.3261C11.4166 14.2754 11.4451 14.2449 11.4736 14.1045H11.5292C11.5172 14.2102 11.5105 14.3165 11.5091 14.4229H10.6249V14.3768C10.682 14.3753 10.7018 14.3533 10.7018 14.3063V13.4393H10.7019ZM6.41051 10.8235C6.77881 10.4016 7.32043 10.1353 7.92472 10.1353C8.54561 10.1353 9.101 10.4171 9.46988 10.8598L9.56733 10.7684C9.17455 10.3013 8.5857 10.0049 7.92746 10.0049C7.28631 10.0049 6.71125 10.2863 6.31862 10.733L6.41051 10.8235ZM7.75306 9.758L7.16488 9.88035L7.01671 9.16782L7.59684 9.04738L7.62407 9.1777L7.24282 9.25714L7.27378 9.40663L7.6376 9.33076L7.66474 9.46158L7.30084 9.53704L7.33653 9.70853L7.72583 9.62743L7.75306 9.758ZM8.87539 9.29823L8.52452 9.22427L8.49132 9.38264L8.84186 9.4571L8.81438 9.58759L8.46393 9.51313L8.40217 9.80598L8.20337 9.76348L8.35336 9.05195L8.90312 9.16782L8.87539 9.29823ZM9.72347 10.516L9.54899 10.3512L9.57655 10.1947L9.27714 9.98668L9.14466 10.0702L8.94653 9.95929L9.65341 9.53811L9.84665 9.672L9.72347 10.516ZM9.66346 9.73799L9.39626 9.90625L9.6085 10.0538L9.66346 9.73799ZM6.49078 10.2242C6.36038 10.3277 6.13925 10.4122 5.97755 10.2222L5.74397 9.92293L5.90011 9.79959L6.1292 10.0938C6.21188 10.1913 6.31589 10.1723 6.39873 10.1073C6.4814 10.0425 6.5239 9.94534 6.44853 9.84208L6.2191 9.54816L6.37524 9.42531L6.6089 9.72455C6.74835 9.91588 6.66194 10.0882 6.49078 10.2242Z" fill="black"/>
<path fill-rule="evenodd" clip-rule="evenodd" d="M10.4396 9.80547C9.81261 9.14631 8.9271 8.73501 7.94571 8.73501C6.95254 8.73501 6.05748 9.15586 5.42962 9.82887L5.32346 9.72105C5.98303 9.03043 6.91295 8.60013 7.94339 8.60013C8.96561 8.60013 9.88856 9.02388 10.5471 9.70453L10.4396 9.80547ZM11.8075 14.9779C11.7717 14.978 11.7363 14.9711 11.7032 14.9574C11.6702 14.9438 11.6401 14.9238 11.6148 14.8986C11.5895 14.8733 11.5694 14.8433 11.5556 14.8103C11.5419 14.7773 11.5349 14.7418 11.5348 14.7061C11.535 14.6339 11.5638 14.5647 11.6149 14.5136C11.666 14.4626 11.7353 14.4339 11.8075 14.4337V14.4598C11.7424 14.46 11.68 14.4861 11.634 14.5323C11.5881 14.5784 11.5623 14.6409 11.5624 14.7061C11.5622 14.7713 11.5879 14.834 11.6338 14.8803C11.6798 14.9266 11.7423 14.9528 11.8075 14.953V14.9779Z" fill="black"/>
<path fill-rule="evenodd" clip-rule="evenodd" d="M11.6953 14.5436H11.8052C11.8472 14.5436 11.8717 14.5496 11.8924 14.5657C11.9023 14.5732 11.9104 14.5828 11.9159 14.5939C11.9215 14.605 11.9244 14.6172 11.9244 14.6296C11.9244 14.6677 11.897 14.6977 11.8529 14.7067C11.8745 14.7131 11.8842 14.7187 11.8934 14.7297C11.905 14.7436 11.9099 14.7582 11.9186 14.8036L11.9235 14.8281C11.9267 14.8461 11.9277 14.8492 11.9338 14.8596H11.9011C11.8944 14.8456 11.8929 14.8401 11.8892 14.8187C11.8776 14.7537 11.8762 14.7492 11.8601 14.7338C11.8477 14.7218 11.8307 14.7178 11.7946 14.7178H11.7254V14.8596H11.6953V14.5436ZM11.8062 14.6931C11.8601 14.6931 11.8929 14.6691 11.8929 14.6296C11.8929 14.588 11.8611 14.5661 11.801 14.5661H11.725V14.6931H11.8062V14.6931Z" fill="black"/>
<path fill-rule="evenodd" clip-rule="evenodd" d="M11.8075 14.9779C11.9581 14.9779 12.0808 14.857 12.0808 14.7061C12.0808 14.5552 11.9581 14.4337 11.8075 14.4337V14.4598C11.9427 14.4598 12.0515 14.57 12.0523 14.7061C12.0523 14.8429 11.9427 14.953 11.8075 14.953V14.9779Z" fill="black"/>
</svg>
