<svg width="42" height="12" viewBox="0 0 42 12" fill="none" xmlns="http://www.w3.org/2000/svg">
<g clip-path="url(#clip0_1255_5118)">
<path d="M9.66376 4.26788C9.37913 4.26788 7.34813 4.26788 7.34813 4.26788L6.65138 9.94238H8.11876L8.64976 5.619H9.38401C9.90076 5.619 10.0729 6.06188 10.032 6.39225C9.98063 6.81263 9.45526 7.2855 8.91488 7.04475L9.28201 8.457C10.4456 8.31375 11.2523 7.37625 11.3936 6.36975C11.5796 5.04375 10.4351 4.26788 9.66376 4.26788Z" fill="#FF001E"/>
<path d="M14.1623 7.1175C13.7374 7.1175 13.4351 6.77325 13.4873 6.348C13.5394 5.92312 13.9264 5.57887 14.3513 5.57887C14.7761 5.57887 15.0784 5.92312 15.0259 6.348C14.9738 6.77325 14.5871 7.1175 14.1623 7.1175ZM14.5148 4.24462C13.3534 4.24462 12.2959 5.18625 12.153 6.348C12.0105 7.50975 12.8366 8.45175 13.9984 8.45175C15.1601 8.45175 16.2176 7.50975 16.3601 6.348C16.503 5.18625 15.6769 4.24462 14.5148 4.24462Z" fill="#FF001E"/>
<path d="M18.957 4.26787C17.7855 4.24462 17.1218 5.5515 17.0895 5.81437L16.7633 8.47125H18.1819C18.1819 8.47125 18.3923 6.76087 18.4429 6.348C18.4935 5.93512 18.9368 5.6265 19.2593 5.6265C19.5821 5.6265 20.0475 5.6265 20.0475 5.6265L19.6688 4.26787H18.957Z" fill="#FF001E"/>
<path d="M22.7666 4.26751L22.923 2.99176L21.375 3.49464L21.2801 4.26789H20.3708L20.6858 5.62651H21.0533L20.7004 8.50164H22.1865L22.5405 5.61901H24.0645L23.7274 4.26751H22.7666Z" fill="#FF001E"/>
<path d="M26.262 6.18187L25.8206 4.27537H24.4095L25.2379 8.47124L24.5243 9.94237H25.9429L28.6511 4.26749H27.1575L26.262 6.18187Z" fill="#FF001E"/>
<path d="M6.18488 2.05724C5.66325 2.05724 5.18888 2.47987 5.12513 3.00149C5.061 3.52274 5.43188 3.94537 5.95313 3.94537C6.47438 3.94537 6.94875 3.52274 7.01288 3.00149C7.07663 2.47987 6.70613 2.05724 6.18488 2.05724Z" fill="#FF001E"/>
<path d="M2.2005 7.33912C1.67925 7.33912 1.2045 7.76212 1.14075 8.283C1.07663 8.80462 1.4475 9.22687 1.96875 9.22687C2.49 9.22687 2.96438 8.80462 3.0285 8.283C3.09263 7.76212 2.72175 7.33912 2.2005 7.33912Z" fill="#FF001E"/>
<path d="M4.56413 4.79849C4.45313 4.80449 3.99863 4.81912 3.87563 4.82099C3.6075 4.82474 3.40875 4.58962 3.43988 4.33537C3.47925 4.01512 3.76463 3.82124 4.00313 3.82387C4.20788 3.82612 4.63238 3.82499 4.63238 3.82499L4.34363 2.24137C2.78513 2.05349 1.84163 3.49462 1.76925 4.32037C1.65975 5.56199 2.6385 6.44099 3.54113 6.42599C4.01475 6.41812 4.22363 6.41474 4.22363 6.41474C4.467 6.41849 4.68563 6.61912 4.65 6.91012C4.60538 7.27237 4.28025 7.43549 4.1115 7.43549C3.94238 7.43549 3.51825 7.43549 3.51825 7.43549L3.80738 8.97787C4.62825 9.08437 6.276 8.53087 6.38588 6.81637C6.49838 5.06099 4.80825 4.78574 4.56413 4.79849Z" fill="#FF001E"/>
<path d="M41.8144 4.26787H41.0239L41.1814 2.98687L39.5501 3.5625L39.462 4.26787H38.5762L38.8965 5.619H39.2966L38.9426 8.50162H40.5041L40.8555 5.63887H42.0664L41.8144 4.26787Z" fill="#FF001E"/>
<path d="M31.2877 4.57799C31.1179 4.57799 30.6739 4.57799 30.6739 4.57799L30.7916 3.61762C30.7916 3.61762 31.2007 3.61762 31.3845 3.61762C31.6834 3.61762 31.8596 3.83249 31.8247 4.11787C31.7854 4.44074 31.458 4.57799 31.2877 4.57799ZM32.4607 5.35612C32.8117 5.19862 33.393 4.83074 33.5212 3.83624C33.6292 2.99924 32.8402 2.36887 32.1045 2.40637C31.5817 2.43299 29.433 2.40637 29.433 2.40637L28.6882 8.47124H30.2029L30.5006 6.04424H31.2236C31.518 6.04424 31.6819 6.28387 31.6421 6.54412C31.5964 6.84449 31.3534 6.97574 31.1284 7.00462C31.0796 7.01062 30.7597 7.00537 30.7597 7.00537L30.9446 8.35012C32.2245 8.82037 33.2404 7.76962 33.3495 6.88387C33.4459 6.09937 32.9805 5.53649 32.4607 5.35612Z" fill="#FF001E"/>
<path d="M35.5571 5.88562C35.6475 5.64825 35.91 5.40825 36.3101 5.40825C36.7481 5.40862 36.8468 5.74425 36.8633 5.88562H35.5571ZM36.5164 4.158C35.3003 4.158 34.1423 5.00362 33.9709 6.39975C33.873 7.19625 34.353 8.50162 35.9228 8.50162C37.0564 8.50162 37.5446 8.151 37.842 7.86337L36.8003 6.969C36.7099 7.08525 36.4294 7.2495 36.0589 7.2495C35.8084 7.2495 35.4754 7.09462 35.3355 6.72037H38.232C38.622 5.40825 37.7546 4.158 36.5164 4.158Z" fill="#FF001E"/>
</g>
<defs>
<clipPath id="clip0_1255_5118">
<rect width="42" height="12" fill="white"/>
</clipPath>
</defs>
</svg>
