<svg width="18" height="18" viewBox="0 0 18 18" fill="none" xmlns="http://www.w3.org/2000/svg">
<path d="M9 17C13.4183 17 17 13.4183 17 9C17 4.58172 13.4183 1 9 1C4.58172 1 1 4.58172 1 9C1 13.4183 4.58172 17 9 17Z" stroke="white" stroke-linecap="round" stroke-linejoin="round"/>
<path d="M3.33331 3.34998C4.8291 4.84967 5.66835 6.88184 5.66665 8.99998C5.66835 11.1181 4.8291 13.1503 3.33331 14.65" stroke="white" stroke-linecap="round" stroke-linejoin="round"/>
<path d="M14.6667 3.34998C13.1726 4.85078 12.3338 6.88227 12.3338 8.99998C12.3338 11.1177 13.1726 13.1492 14.6667 14.65" stroke="white" stroke-linecap="round" stroke-linejoin="round"/>
<path d="M1 9H17" stroke="white" stroke-linecap="round" stroke-linejoin="round"/>
<path d="M9 1V17" stroke="white" stroke-linecap="round" stroke-linejoin="round"/>
</svg>
