<svg width="32" height="12" viewBox="0 0 32 12" fill="none" xmlns="http://www.w3.org/2000/svg">
<path d="M9.33685 7.58533C9.25655 7.60574 9.21674 7.65873 9.20214 7.73839C9.13345 8.11789 9.05249 8.49542 9.03623 8.88183C9.0236 9.06184 9.03984 9.2427 9.08434 9.41767C9.16829 9.7139 9.35809 9.91797 9.66071 9.97722C10.2139 10.0858 10.7225 9.98939 11.0981 9.53781C11.3805 9.19781 11.4963 8.80646 11.3175 8.37133C11.2986 8.32525 11.2883 8.27785 11.3507 8.26534C11.5527 8.22486 11.7558 8.1666 11.9609 8.25119C12.1961 8.34993 12.3119 8.53359 12.3146 8.77782C12.3189 9.2294 12.1155 9.58981 11.7681 9.86596C11.3477 10.2007 10.8609 10.3959 10.3307 10.4884C9.9537 10.5542 9.57444 10.5443 9.19716 10.5055C8.66061 10.4502 8.15558 10.2998 7.72455 9.95977C7.26 9.59475 7.04133 9.104 7.00019 8.53195C6.98559 8.33216 6.99786 8.13072 6.97497 7.926C6.90595 8.09057 6.83892 8.25514 6.76758 8.41971C6.52237 8.98057 6.19652 9.4835 5.70344 9.86662C5.38195 10.1178 5.00534 10.2903 4.60412 10.3702C4.57905 10.3736 4.55378 10.3754 4.52847 10.3755C4.4767 10.3505 4.42494 10.3771 4.37284 10.3771C3.3243 10.3745 2.27586 10.3745 1.22753 10.3771C1.10144 10.3771 0.975683 10.3798 0.83466 10.3702C0.858219 10.3357 0.880451 10.3067 0.870496 10.2715C1.17212 9.77446 1.27664 9.21624 1.38647 8.65867C1.55238 7.80751 1.72659 6.95733 1.89615 6.1065C1.95289 5.82212 2.00598 5.53708 2.06206 5.25237C2.06797 5.2373 2.07263 5.22178 2.07599 5.20596C2.17488 4.72607 2.27354 4.24618 2.37198 3.76629C2.42261 3.60726 2.42354 3.43675 2.37463 3.27718C2.3587 3.19753 2.34145 3.11788 2.32652 3.03823C2.31159 2.94804 2.35572 2.93027 2.43934 2.93093C3.04258 2.93389 3.64616 2.93093 4.24941 2.93093C4.39176 2.93093 4.39176 2.93093 4.3964 3.07048C4.39592 3.09559 4.39393 3.12065 4.39043 3.14553C4.28226 3.6941 4.17375 4.24267 4.06492 4.79124C4.03173 4.95285 4.00287 5.11479 3.96869 5.29351C4.08151 5.22571 4.17608 5.16778 4.27164 5.1115C4.69404 4.86201 5.13437 4.68065 5.64271 4.71488C6.25094 4.75635 6.69989 5.03152 6.9607 5.58579C7.14884 5.98603 7.18799 6.41128 7.15979 6.84575C7.15515 6.92145 7.15116 6.99716 7.14685 7.07253C7.20007 6.96792 7.24792 6.8607 7.29019 6.75129C7.42923 6.42642 7.624 6.1348 7.83803 5.8547C7.84969 5.84504 7.86077 5.83471 7.87121 5.82376C8.22089 5.41762 8.67077 5.10837 9.17692 4.92619C9.73937 4.71556 10.3433 4.63671 10.9415 4.69579C11.2524 4.7287 11.5431 4.8258 11.8245 4.95614L11.8262 4.95812C12.0471 5.08451 12.2605 5.22143 12.4354 5.40937C12.7121 5.70758 12.8296 6.06766 12.8508 6.46263C12.8662 6.80101 12.8355 7.13989 12.7596 7.47013C12.7496 7.51523 12.7453 7.5669 12.6836 7.57711C12.6747 7.57041 12.6645 7.56563 12.6536 7.56308C12.6428 7.56053 12.6315 7.56026 12.6205 7.56229H9.37899C9.36376 7.56313 9.34859 7.56477 9.33354 7.56723L9.33685 7.58533ZM9.39625 7.08668L9.39028 7.10215C9.39841 7.1052 9.40687 7.1073 9.41549 7.10841H10.6578C10.6771 7.10841 10.6963 7.10841 10.7076 7.088C10.8121 7.05509 10.7919 6.95865 10.8091 6.88327C10.9107 6.45019 10.9673 6.00793 10.978 5.56341C10.9823 5.30931 10.8121 5.14375 10.5579 5.13552C10.1996 5.12269 9.95171 5.29022 9.79078 5.59632C9.56315 6.02882 9.44569 6.49587 9.3561 6.97181C9.34747 7.01756 9.34979 7.05936 9.39625 7.08668ZM3.27054 9.8765H3.45238C3.47487 9.8752 3.49714 9.87133 3.51874 9.86498C4.0908 9.71357 4.49064 9.3739 4.66252 8.80382C4.85664 8.16199 4.99135 7.50601 5.11778 6.84805C5.17792 6.53019 5.15368 6.20227 5.04743 5.8965C5.0275 5.82564 4.98627 5.76248 4.92924 5.71544C4.87222 5.6684 4.8021 5.63971 4.72822 5.63319C4.50856 5.60357 4.32008 5.674 4.15948 5.82245C3.86815 6.09136 3.71186 6.43301 3.63388 6.81185C3.51078 7.40924 3.39464 8.00763 3.27685 8.60601C3.1992 9.00098 3.12487 9.39398 3.04457 9.7873C3.03097 9.85576 3.04457 9.88242 3.11757 9.87814C3.16834 9.87386 3.21944 9.8765 3.27054 9.8765Z" fill="#D42127"/>
<path d="M19.4726 10.525C19.1408 10.5473 18.8119 10.5704 18.4798 10.548C17.8799 10.5075 17.3002 10.3933 16.7673 10.1037C16.5622 9.99241 16.3764 9.85318 16.2636 9.64089C16.0917 9.31734 16.1783 8.9227 16.4262 8.63338C16.8841 8.09984 17.8862 8.00603 18.5077 8.47901C18.5818 8.53369 18.6487 8.59738 18.7068 8.6686C18.7715 8.74924 18.7678 8.79532 18.6878 8.86115C18.6079 8.92698 18.5219 8.98787 18.4556 9.07147C18.1639 9.43912 18.3202 9.94205 18.7728 10.0707C19.168 10.183 19.4975 10.0869 19.7789 9.77814C20.2975 9.20839 20.6124 8.53859 20.8075 7.80592C20.8513 7.64134 20.8851 7.47381 20.9187 7.30693C20.9296 7.25295 20.9495 7.17923 20.9004 7.14796C20.8603 7.12229 20.8095 7.17659 20.7677 7.20523C20.3632 7.48829 19.9259 7.70289 19.4404 7.8069C18.8511 7.93296 18.2654 7.93856 17.6911 7.72198C17.0251 7.47217 16.54 6.79347 16.5217 6.08878C16.5184 5.72798 16.5775 5.3693 16.6963 5.02828C16.7049 5.00162 16.7105 4.97364 16.7175 4.94632C16.7298 4.92131 16.7437 4.89662 16.754 4.87062C16.8774 4.55888 17.0541 4.27059 17.2763 4.01847C17.7206 3.5162 18.287 3.20154 18.9095 2.97311C19.2876 2.83933 19.6826 2.75824 20.0831 2.73218C20.5792 2.69334 21.0686 2.71934 21.5511 2.84968C21.7854 2.919 22.0121 3.01152 22.2277 3.12583C22.2377 3.13719 22.2488 3.14755 22.2609 3.15677C22.5175 3.31609 22.7472 3.5146 22.9414 3.74495C23.1249 3.95758 23.258 4.20081 23.3751 4.45392C23.401 4.5372 23.4256 4.62113 23.4538 4.70407C23.5148 4.88313 23.5251 5.07205 23.5652 5.25539C23.5672 5.32341 23.5695 5.39143 23.5719 5.45946V5.74351C23.5719 5.8067 23.5682 5.8699 23.5662 5.93309C23.5506 6.05487 23.539 6.17732 23.5181 6.29811C23.4869 6.48112 23.4494 6.66313 23.4146 6.84548C23.4124 6.84712 23.4109 6.84952 23.4104 6.8522C23.4099 6.85489 23.4105 6.85766 23.4119 6.85996C23.3943 6.89016 23.3836 6.92389 23.3808 6.9587L23.3748 6.99491C23.2989 7.21039 23.2228 7.42608 23.1465 7.642C23.0925 7.73838 23.0454 7.83848 23.0058 7.94152L23.0081 7.93922L22.9949 7.96357C22.9937 7.9641 22.9927 7.96485 22.9919 7.96576C22.9911 7.96668 22.9904 7.96776 22.99 7.96892C22.9896 7.97009 22.9895 7.97132 22.9896 7.97255C22.9896 7.97378 22.99 7.97498 22.9905 7.97608C22.9331 8.06258 22.8831 8.15375 22.8412 8.24861C22.7952 8.3063 22.7565 8.3693 22.7257 8.43622L22.456 8.81474C22.3974 8.87198 22.3452 8.93533 22.3004 9.00367L22.1225 9.19424C22.1213 9.1941 22.12 9.19422 22.1188 9.19458C22.1176 9.19494 22.1165 9.19554 22.1155 9.19634C22.1146 9.19714 22.1138 9.19812 22.1132 9.19923C22.1126 9.20034 22.1123 9.20156 22.1122 9.2028C22.0737 9.23213 22.0401 9.26735 22.0127 9.30714L21.6122 9.65142C21.3769 9.81549 21.1332 9.96743 20.8822 10.1066L20.5377 10.2593C20.4136 10.2985 20.2899 10.3383 20.1658 10.3768C19.9424 10.4447 19.7059 10.4756 19.4726 10.525ZM21.502 4.61586C21.5033 4.36535 21.4761 4.11549 21.421 3.87101C21.357 3.58565 21.2146 3.35097 20.9233 3.24564C20.694 3.16434 20.4588 3.17981 20.2285 3.25222C19.8864 3.35788 19.6601 3.59914 19.4703 3.88451C19.2012 4.28869 19.0505 4.73633 18.9569 5.20865C18.869 5.65299 18.8574 6.0924 18.9782 6.53147C19.0572 6.82079 19.2496 7.05514 19.5755 7.09102C19.9849 7.13479 20.343 7.01169 20.6303 6.72896C21.2219 6.14967 21.4927 5.43378 21.502 4.61455V4.61586Z" fill="#14B151"/>
<path d="M13.4046 6.00777L13.4129 5.97156C13.4461 5.80172 13.4829 5.63222 13.5125 5.46139C13.5297 5.36528 13.4955 5.32973 13.398 5.3406C13.3253 5.34866 13.252 5.35064 13.179 5.34652C13.1189 5.34257 13.11 5.31657 13.1332 5.26588C13.151 5.22901 13.177 5.1966 13.2092 5.17109C13.3495 5.05095 13.5108 4.96011 13.6585 4.85017C13.9856 4.60727 14.2345 4.29063 14.4927 3.98157C14.8115 3.60108 15.153 3.24527 15.5926 2.99809C15.8432 2.85721 16.1033 2.74004 16.3953 2.71437C16.4427 2.70943 16.4906 2.70943 16.538 2.71437C16.5795 2.7193 16.6465 2.71239 16.6505 2.76012C16.6542 2.78865 16.6497 2.81766 16.6375 2.84376C16.6253 2.86986 16.6058 2.89199 16.5815 2.90757C16.535 2.93478 16.4897 2.96397 16.4454 2.99512C16.0675 3.25844 15.8617 3.63662 15.7257 4.06023C15.6615 4.26578 15.6082 4.47452 15.5661 4.6856C15.5435 4.79422 15.5445 4.79455 15.6603 4.79455H16.253C16.3498 4.79455 16.3664 4.81627 16.3472 4.90744C16.3193 5.0391 16.2931 5.17339 16.2652 5.30604C16.2599 5.33006 16.2569 5.35738 16.2251 5.36462C15.9965 5.36462 15.7678 5.36462 15.5392 5.36462C15.5113 5.36462 15.4728 5.34586 15.4579 5.39063C15.3952 5.44296 15.3965 5.52031 15.3826 5.58811C15.2552 6.23587 15.1291 6.88318 15.0043 7.53005C14.9273 7.927 14.858 8.32526 14.7664 8.71925C14.7465 8.80515 14.7186 8.88941 14.7 8.97565C14.6526 9.19387 14.7684 9.34133 14.993 9.35449C15.1397 9.36305 15.2764 9.31862 15.4131 9.27682C15.4765 9.25773 15.507 9.25773 15.4878 9.34067C15.3242 10.0434 14.6844 10.5486 13.9667 10.5216C13.5271 10.5048 13.1531 10.3485 12.9208 9.94991C12.7655 9.68364 12.7632 9.40123 12.8213 9.10566C13.0204 8.08894 13.2085 7.0709 13.4006 6.05319C13.4029 6.03815 13.4042 6.02298 13.4046 6.00777Z" fill="#D42128"/>
<path d="M22.6488 11.9705L22.5933 11.9669C22.5375 11.9462 22.4787 11.9343 22.4191 11.9317L22.4112 11.9274H22.4025C22.3694 11.8945 22.296 11.9241 22.2874 11.8534L22.3083 11.8336L22.3345 11.8139C22.3357 11.8143 22.337 11.8144 22.3382 11.8142C22.3394 11.8141 22.3406 11.8137 22.3417 11.813C22.3427 11.8124 22.3436 11.8115 22.3443 11.8104C22.3449 11.8094 22.3453 11.8082 22.3455 11.8069C22.3713 11.784 22.3972 11.761 22.4231 11.7382C22.4717 11.7112 22.5121 11.6718 22.5399 11.6239C22.5819 11.5952 22.6155 11.5559 22.6371 11.5101H22.6355C22.6407 11.5092 22.6455 11.5065 22.6487 11.5023C22.652 11.4982 22.6536 11.4929 22.6531 11.4877C22.7374 11.3933 22.8022 11.2835 22.8439 11.1645C22.8551 11.1494 22.865 11.1335 22.8734 11.1167C23.0221 10.7547 23.0725 10.3683 23.1468 9.98777L23.1511 9.95255C23.1934 9.80235 23.2249 9.64935 23.2454 9.49472C23.2646 9.47991 23.2603 9.45917 23.259 9.43909L23.2649 9.38314C23.3122 9.20779 23.3491 9.02986 23.3754 8.85026L23.3774 8.83084C23.4023 8.76406 23.4159 8.69366 23.4176 8.62249C23.4448 8.56313 23.4581 8.49842 23.4564 8.43323C23.5188 8.1821 23.5712 7.92898 23.609 7.67291L23.6134 7.66896L23.611 7.66337C23.6711 7.41552 23.7245 7.16636 23.7607 6.91358C23.763 6.91171 23.7645 6.90908 23.765 6.90617C23.7655 6.90327 23.7649 6.90029 23.7633 6.89778C23.8261 6.65264 23.8762 6.40447 23.9133 6.15425C23.9157 6.15242 23.9173 6.14978 23.9177 6.14686C23.9182 6.14393 23.9176 6.14093 23.916 6.13845C23.94 6.0771 23.9529 6.01203 23.9541 5.94623C23.9624 5.91957 23.9727 5.89324 23.9794 5.86592C24.0421 5.60524 24.0603 5.3462 23.9535 5.09111C23.9409 4.99533 23.8715 4.91996 23.8539 4.8255L23.8758 4.80048L24.0676 4.78699H25.6175H25.9046C25.9819 4.78699 26.0267 4.81826 26.0177 4.90153C25.9845 4.97098 25.9845 5.04767 25.9683 5.12107C25.9198 5.3643 25.8754 5.6082 25.8292 5.85209C25.8269 5.85417 25.8254 5.85699 25.825 5.86007C25.8246 5.86314 25.8253 5.86626 25.8269 5.86888C25.8023 5.92983 25.7894 5.99479 25.7888 6.06044C25.7144 6.36819 25.6603 6.67989 25.6023 6.99093L25.5973 7.04721C25.5608 7.16523 25.5359 7.28648 25.523 7.40927L25.5213 7.42803C25.4991 7.48247 25.4871 7.54047 25.4858 7.59918L25.4818 7.6321C25.4332 7.81588 25.3957 8.00241 25.3697 8.19065C25.3697 8.19757 25.3697 8.20415 25.3673 8.21106C25.3307 8.33458 25.3055 8.46117 25.292 8.58925C25.2897 8.59123 25.2881 8.59397 25.2876 8.59699C25.2872 8.6 25.2878 8.60309 25.2894 8.6057C25.2663 8.66068 25.2544 8.71961 25.2542 8.77916L25.2522 8.79792C25.1759 9.10534 25.1221 9.41704 25.0647 9.72841L25.0607 9.76593C25.0289 9.87814 25.005 9.99241 24.9891 10.1079C24.9871 10.1263 24.9854 10.1444 24.9834 10.1629C24.9171 10.4071 24.8839 10.6566 24.8331 10.9051C24.8307 10.9066 24.829 10.909 24.8284 10.9118C24.8277 10.9145 24.8281 10.9174 24.8295 10.9199C24.8099 10.9494 24.7985 10.9834 24.7963 11.0186C24.7951 11.0192 24.794 11.0199 24.7931 11.0209C24.7922 11.0219 24.7915 11.023 24.791 11.0242C24.7906 11.0254 24.7903 11.0267 24.7904 11.028C24.7904 11.0293 24.7908 11.0306 24.7913 11.0318C24.5431 11.5538 24.0656 11.7513 23.5496 11.8912C23.4169 11.9268 23.2842 11.9432 23.1485 11.9686L22.9162 11.9778H22.8064L22.6488 11.9705Z" fill="#14B151"/>
<path d="M31.3935 5.9334C31.3935 6.05869 31.3941 6.18431 31.3952 6.31027C31.3036 6.98896 31.1559 7.65778 31.0302 8.33022C30.9741 8.62645 30.9203 8.92564 30.8643 9.22285C30.7979 9.57273 30.8404 9.92129 30.8696 10.2702C30.8792 10.3877 30.8696 10.4018 30.7478 10.4018C30.2286 10.4018 29.7095 10.4025 29.1906 10.4038C29.1176 10.4038 29.0442 10.4078 28.9712 10.4097C28.8445 10.3791 28.8269 10.3577 28.8139 10.2257C28.8107 10.1882 28.805 10.151 28.797 10.1142C28.7738 10.0118 28.7436 9.99403 28.6547 10.0483C28.4622 10.1622 28.2694 10.2758 28.0684 10.3745L28.0494 10.3795L27.9738 10.4124L27.6088 10.5243H27.6002L27.5925 10.5286C27.5203 10.5314 27.4487 10.5432 27.3795 10.5638L27.2673 10.5694H27.0563L26.8877 10.5628C26.8182 10.5421 26.7463 10.5302 26.6737 10.5276L26.6661 10.5233L26.6575 10.5249C26.5081 10.4743 26.3555 10.4321 26.2168 10.3531C25.9274 10.1905 25.7087 9.92777 25.6023 9.61519C25.5993 9.55659 25.5867 9.49887 25.5648 9.44436L25.5621 9.40651C25.5522 9.23404 25.5771 9.06388 25.6013 8.89404C25.6024 8.89337 25.6034 8.89248 25.6041 8.89143C25.6049 8.89038 25.6054 8.88919 25.6057 8.88793C25.606 8.88666 25.606 8.88536 25.6057 8.88409C25.6055 8.88282 25.605 8.88161 25.6043 8.88054C25.6577 8.73276 25.7002 8.58135 25.7732 8.44048C25.9029 8.19 26.0897 7.98626 26.2918 7.79371L26.3154 7.77627L26.3319 7.75981L26.7162 7.49288L26.9548 7.37636C27.2063 7.25326 27.4744 7.17328 27.7352 7.07355C27.7362 7.07416 27.7372 7.07454 27.7384 7.07467C27.7395 7.07479 27.7406 7.07466 27.7417 7.07428C27.7427 7.0739 27.7437 7.07327 27.7445 7.07246C27.7452 7.07165 27.7458 7.07067 27.7462 7.0696C27.7588 7.06948 27.7714 7.06782 27.7837 7.06466C28.2276 6.91095 28.6719 6.75823 29.1069 6.58016C29.2726 6.51416 29.4073 6.38881 29.4842 6.22897C29.5907 6.01107 29.5901 5.78265 29.5274 5.55422C29.5008 5.45779 29.4278 5.39624 29.3326 5.36069C29.2024 5.31498 29.0623 5.30453 28.9268 5.33041C28.6729 5.37122 28.5392 5.53777 28.5458 5.79384C28.5482 5.86922 28.5641 5.94393 28.5704 6.0193C28.5807 6.13878 28.5346 6.22765 28.4214 6.279C28.1779 6.38992 27.9313 6.4936 27.6602 6.51335C27.3257 6.5377 27.0404 6.44061 26.8566 6.1457C26.5987 5.73196 26.5503 5.28334 26.6528 4.81332C26.6674 4.74585 26.7013 4.72906 26.7603 4.76593C26.9684 4.89561 27.2006 4.92721 27.4389 4.91931C27.8972 4.90031 28.3539 4.85436 28.8067 4.78173C29.2403 4.7159 29.6744 4.69845 30.11 4.76757C30.3445 4.80986 30.5754 4.86994 30.8005 4.94729C31.0501 5.07894 31.2339 5.26886 31.3188 5.54402C31.3577 5.67173 31.3686 5.80372 31.3935 5.9334ZM29.2934 7.09494C29.1109 7.16637 28.9387 7.22199 28.7854 7.32074C28.4258 7.55519 28.1165 7.85801 27.8756 8.21172C27.6536 8.53198 27.5215 8.87264 27.5856 9.27058C27.6247 9.51349 27.8228 9.72183 28.0531 9.74191C28.211 9.75573 28.3431 9.6797 28.4742 9.61025C28.7081 9.48353 28.879 9.30251 28.9221 9.03228C28.9948 8.57675 29.097 8.12681 29.1836 7.67391C29.2188 7.48465 29.2553 7.29638 29.2934 7.09494Z" fill="#14B151"/>
<path d="M25.3362 4.12014C26.3078 4.12014 27.0955 3.33883 27.0955 2.37503C27.0955 1.41123 26.3078 0.629913 25.3362 0.629913C24.3645 0.629913 23.5769 1.41123 23.5769 2.37503C23.5769 3.33883 24.3645 4.12014 25.3362 4.12014Z" fill="white" stroke="black" stroke-width="0.669305"/>
<path d="M24.6838 0.754666L24.7462 0.905084M23.7136 2.36384C23.8081 2.5847 24.0288 2.6446 24.2249 2.72854M24.4303 1.19506C23.9959 1.29907 23.7166 1.75197 23.7302 1.7546M24.8444 1.40242C24.706 1.64236 24.6851 1.95867 24.7561 2.33323M25.3169 0.744791C25.4682 0.681266 25.7111 0.691141 26.0078 0.760919M24.5069 3.41546C24.4359 3.49182 24.3941 3.61985 24.36 3.76073M25.4788 1.13318C25.6633 1.23192 26.0021 1.4011 26.2158 1.66837M25.2038 3.35819C25.3735 3.57112 25.6136 3.71776 25.8817 3.77225M26.2049 2.31118C25.9354 2.47644 25.6474 2.60999 25.3468 2.70912M26.697 1.57226C26.678 1.40077 26.5974 1.23554 26.5022 1.0713M26.9335 2.25885C26.9708 2.27592 27.0041 2.3003 27.0316 2.3305C27.0591 2.36071 27.0802 2.39612 27.0935 2.43461M26.6555 2.65152C26.6817 2.89706 26.5808 3.18999 26.4796 3.48392" stroke="black" stroke-width="0.669305"/>
<path d="M24.6924 0.770794C24.9242 0.723465 25.1611 0.705219 25.3975 0.716486C25.4619 0.834977 25.4861 0.994941 25.5167 1.15392C25.2426 1.26188 24.9801 1.36983 24.8099 1.46956C24.6287 1.3774 24.5292 1.35568 24.3185 1.22534C24.3881 1.0611 24.5146 0.909692 24.6924 0.770794ZM26.6969 1.54198C26.8144 1.78521 26.9292 2.02878 26.9757 2.27761C26.8652 2.44218 26.7504 2.62551 26.6571 2.70747C26.5061 2.61926 26.3253 2.4751 26.1494 2.34541C26.1534 2.06433 26.164 1.85598 26.172 1.6213C26.3598 1.57456 26.5407 1.53638 26.6969 1.54198ZM23.611 2.7078C23.5419 2.35221 23.5861 1.9841 23.7374 1.65454L23.7799 1.66606C23.7222 1.91391 23.6784 2.15978 23.7361 2.38359C23.6728 2.48043 23.6408 2.59409 23.6442 2.70945L23.611 2.7078ZM24.7448 2.2707C24.9771 2.4119 25.2038 2.54948 25.4228 2.68476C25.4032 2.9405 25.3202 3.17189 25.2525 3.40887C25.0116 3.48523 24.7442 3.43257 24.4893 3.43553C24.3005 3.16992 24.271 2.94577 24.197 2.71142C24.3599 2.54255 24.5434 2.3945 24.7432 2.2707H24.7448ZM26.6256 3.56061C26.3722 3.83191 26.0385 4.01633 25.6726 4.08724L25.5943 4.05202C25.6872 3.98849 25.7549 3.88087 25.8106 3.75217C26.0008 3.74032 26.2576 3.56423 26.5025 3.41743C26.5492 3.45964 26.59 3.50779 26.6239 3.56061H26.6256ZM24.6324 3.97204C24.3981 3.86991 24.1891 3.71839 24.0198 3.52802C24.136 3.63302 24.2322 3.72551 24.3692 3.73374C24.3832 3.79924 24.4512 3.87329 24.6307 3.97204H24.6324Z" fill="black"/>
</svg>
