<svg width="46" height="12" viewBox="0 0 46 12" fill="none" xmlns="http://www.w3.org/2000/svg">
<path d="M26.6134 3.99272C27.0245 2.34517 26.0219 0.981812 23.5662 0.981812H18.2435L16.2493 9.03968L17.4069 11.0218H21.1933C23.6743 11.0218 25.5964 9.86705 26.0905 7.85978C26.3393 6.83096 26.0508 6.11151 25.4017 5.75178V5.7266C26.0172 5.32884 26.4522 4.70645 26.6134 3.99272ZM23.3678 7.79503C23.2669 8.21591 22.982 8.64758 21.8028 8.64758H19.3866L19.8086 6.92089H22.2139C23.3786 6.9173 23.4652 7.35976 23.3534 7.79503H23.3678ZM23.851 4.04668C23.7645 4.37043 23.5157 4.76613 22.4987 4.76613H20.3351L20.6957 3.3632H22.8594C23.8871 3.35601 23.9376 3.68695 23.851 4.04668Z" fill="#007ACC"/>
<path d="M29.9635 7.13313H34.8101L35.3619 4.75894H30.5477L30.9227 3.35601H35.69L36.2418 0.981812H28.4164L25.9354 11.0182H34.7993L35.3799 8.64398H29.6065L29.9635 7.13313Z" fill="#007ACC"/>
<path d="M36.9197 0.981812L36.3644 3.35601H39.2601L37.3597 11.0182H40.3997L42.3037 3.35601H45.405L46 0.981812H36.9197Z" fill="#007ACC"/>
<path d="M3.18062 11.0182H0.115397L1.44246 5.65825L1.74898 4.84887L0.937598 5.65825L0.0360615 6.56836L0 3.892L3.18062 0.981812H5.65804L3.18062 11.0182Z" fill="#002F5E"/>
<path d="M14.2479 6.85974L13.2706 5.2086L18.0127 0.981812H13.5952L11.7921 2.7085L5.67607 8.30224L2.74067 11.0182H6.92019L10.0611 8.2231L11.1177 10.0217C11.4784 10.475 11.9868 11.0254 14.1433 11.0254H16.6676L14.2515 6.85614L14.2479 6.85974Z" fill="#002F5E"/>
<path d="M11.4531 2.15452V2.13294C11.1826 1.7564 10.8215 1.45368 10.4031 1.25255C9.98477 1.05142 9.52246 0.958329 9.05864 0.981813H5.79508L8.22923 5.11147L11.4531 2.15452Z" fill="#002F5E"/>
</svg>
