<svg width="20" height="16" viewBox="0 0 20 16" fill="none" xmlns="http://www.w3.org/2000/svg">
<path d="M0.860462 0C0.418602 0 0.0465088 0.348837 0.0465088 0.813953V11.6977C0.0465088 12.1395 0.395346 12.5116 0.860462 12.5116H17.5116C17.9535 12.5116 18.3256 12.1628 18.3256 11.6977V5.90698C17.3954 5.90698 16.6512 5.16279 16.6512 4.23256C16.6512 3.30232 17.3954 2.55814 18.3256 2.55814V0.813953C18.3256 0.372093 17.9767 0 17.5116 0H0.860462Z" fill="url(#paint0_linear_107_5919)"/>
<path d="M0.534912 0.60481C0.720959 0.697834 0.883751 0.88388 1.02329 1.18621H17.4419C17.4884 0.930392 17.6279 0.744346 17.8605 0.581555C17.7675 0.465276 17.6512 0.395508 17.5349 0.395508H0.837242C0.720963 0.418764 0.60468 0.488531 0.534912 0.60481Z" fill="url(#paint1_linear_107_5919)"/>
<path d="M0.0930204 0.581543C0.0930204 0.604799 0.0930204 0.604799 0.0930204 0.581543V0.581543ZM16.907 5.11643C11.4419 8.06991 5.76744 8.30247 0.0930204 8.32573H0.0697632V11.6746C0.0697632 12.1164 0.4186 12.4885 0.883717 12.4885H17.5349C17.9767 12.4885 18.3488 12.1397 18.3488 11.6746V5.90712C17.7209 5.90712 17.2093 5.58154 16.907 5.11643Z" fill="url(#paint2_linear_107_5919)"/>
<path d="M1.48837 11.2791C1.48837 11.2791 1.37209 11.2559 1.39535 11.2326C1.4186 11.1163 1.46511 11.0466 1.46511 11.0001C1.46511 10.9536 1.55813 11.0001 1.55813 11.0001L1.62791 10.8605C1.62791 10.8605 1.53488 10.8373 1.55813 10.7908C1.58139 10.6977 1.62791 10.6512 1.65116 10.628C1.67442 10.6047 1.72093 10.6512 1.72093 10.6512C1.72093 10.6512 1.76744 10.6047 1.76744 10.5815C1.83721 10.4884 1.93023 10.4419 1.95349 10.3722L2 10.2326C2 10.2326 1.90698 10.1861 1.93024 10.1629C1.97675 10.0931 1.99999 10.0698 2.02325 10.0001C2.04651 9.97682 2.09302 10.0466 2.09302 10.0466L2.16279 9.95356C2.16279 9.95356 2.09302 9.90705 2.11628 9.88379C2.13954 9.81402 2.2093 9.76751 2.23256 9.69774C2.25581 9.67449 2.30232 9.74426 2.30232 9.74426C2.30232 9.74426 2.44186 9.58147 2.51163 9.55821C2.55814 9.55821 2.65116 9.62798 2.65116 9.62798L2.81395 9.79077L2.97675 9.95356H3.06976C3.25581 9.95356 3.72093 9.81402 4.25582 9.60472C4.55814 9.48844 4.88372 9.37216 4.97674 9.34891C4.97674 9.34891 5.09302 9.3024 5.16279 9.3024C5.18604 9.3024 5.25581 9.32565 5.25581 9.32565L5.34883 9.34891L5.25581 9.20937C5.2093 9.11635 5.09302 8.9303 5.02326 8.76751C4.93023 8.60472 4.88372 8.44193 4.81395 8.3024L4.72093 8.32565L4.55814 7.9303C4.09302 6.97681 4.0465 6.721 4.06976 6.1396C4.09302 6.00007 4.13954 5.90705 4.2093 5.81402L4.11627 5.79077C4.11627 5.79077 4.02326 5.81402 4.02326 5.76751C4.02326 5.55821 4.06976 5.16286 4.06976 5.16286C4.13953 4.46519 4.23256 3.76751 4.39535 3.27914L4.46511 3.06984L4.69767 2.95356L4.93023 2.83728L4.81395 2.86054C4.74418 2.86054 4.46512 2.90705 4.2093 2.90705L3.72092 2.95356L3.25581 3.46519L2.74419 3.9303L2.69768 4.09309C2.69768 4.09309 2.67442 4.20937 2.65116 4.25588C2.6279 4.3024 2.53488 4.39542 2.53488 4.39542C2.46511 4.46519 2.34884 4.55821 2.27907 4.60472L2.13953 4.67449H2.04652C1.90698 4.67449 1.83721 4.65123 1.83721 4.58147C1.83721 4.55821 1.90697 4.46519 1.97674 4.39542C2.0465 4.3024 2.11627 4.23263 2.09302 4.23263C2.09302 4.23263 2.02325 4.25588 1.95349 4.3024C1.95349 4.3024 1.86047 4.39542 1.81396 4.39542C1.76745 4.39542 1.74418 4.32565 1.74418 4.25588C1.74418 4.20937 1.83721 4.18612 1.88372 4.16286C2 4.06984 2.04651 4.00007 2.13953 3.86054C2.18604 3.79077 2.25581 3.69774 2.32557 3.67449L2.44185 3.60472L2.74419 3.11635C2.90698 2.86053 3.09302 2.53495 3.18604 2.41867C3.18604 2.41867 3.25582 2.25588 3.32559 2.18612C3.3721 2.16286 3.46511 2.13961 3.46511 2.13961L3.65116 2.09309C3.65116 2.02333 3.60465 1.95356 3.67442 1.95356C4.18605 1.83728 4.34884 1.76751 4.7907 1.67449C5.16279 1.60472 5.51162 1.62798 5.51162 1.62798L5.67442 1.65123C5.90697 1.69775 6.25581 1.79077 6.41861 1.83728L6.55813 1.88379L6.6279 1.74426C6.72092 1.55821 6.90697 1.37216 7.09302 1.27914C7.32557 1.18612 7.53488 1.13961 7.76744 1.20937L7.90697 1.25588C8.16278 1.41867 8.30232 1.65123 8.4186 1.90705C8.44186 2.18612 8.48838 2.39542 8.32558 2.53495C8.27907 2.55821 8.23255 2.55821 8.13953 2.60472C8.02325 2.65123 7.95348 2.79077 7.8372 2.95356C7.8372 2.95356 7.7907 3.02333 7.74419 3.04658C7.69768 3.06984 7.67442 3.06984 7.62791 3.04658C7.53489 3.04658 7.48837 3.06984 7.48837 3.06984L7.37209 3.13961C7.30232 3.18612 7.20931 3.20937 7.16279 3.20937H7.09302C7.0465 3.18612 7 3.09309 7 3.09309L6.93024 2.97681L6.90697 3.04658C6.69767 3.62798 6.65116 4.3024 6.44186 4.88379L6.72093 4.90705C6.86046 4.9303 7.23256 4.97681 7.53488 5.02333C7.53488 5.02333 7.93024 5.06984 8.09303 5.11635C8.13954 5.11635 8.16279 5.23263 8.16279 5.23263L8.51163 5.3024C8.69767 5.34891 8.99999 5.41868 9.18604 5.48844L9.51163 5.60472C9.51163 5.60472 9.74418 5.55821 9.86046 5.55821C10 5.55821 10.2558 5.65123 10.2558 5.65123L10.2791 5.60472L10.6047 5.74426C10.7674 5.81402 11.1163 5.97681 11.4419 6.11635C12.093 6.39542 12.5581 6.55821 12.814 6.62798L13 6.67449L13.5116 6.62798C13.7907 6.60472 14.093 6.55821 14.186 6.53495C14.4186 6.48844 14.4884 6.48844 14.5814 6.58147C14.6279 6.62798 14.6977 6.69774 14.6744 6.721C14.6512 6.74426 14.6047 6.79077 14.5581 6.79077C14.5581 6.79077 14.6046 6.83728 14.5814 6.86054C14.5349 6.90705 14.4884 6.90705 14.4419 6.9303C14.4186 6.9303 14.3953 6.88379 14.3953 6.88379L14.3023 6.95356C14.3256 6.97681 14.3488 7.00007 14.3256 7.02333C14.2791 7.06984 14.2325 7.09309 14.186 7.11635C14.1628 7.13961 14.1628 7.09309 14.1395 7.06984L13.5581 7.5117C13.5581 7.5117 13.6279 7.55821 13.6046 7.60472C13.5349 7.67449 13.5349 7.67449 13.4884 7.69774C13.4651 7.69774 13.4419 7.65123 13.4186 7.62798L13.3256 7.69774C13.3256 7.69774 13.3953 7.76751 13.3721 7.79077C13.3488 7.81402 13.3023 7.83728 13.2326 7.88379C13.2093 7.90705 13.1395 7.81402 13.1395 7.81402C13.1395 7.81402 12.9535 7.9303 12.8837 7.90705C12.8372 7.88379 12.8372 7.76751 12.7674 7.65123C12.7674 7.65123 12.7209 7.5117 12.6512 7.46519C12.6046 7.41868 12.5116 7.41867 12.5116 7.41867C12.2093 7.37216 11.6977 7.25588 11.3953 7.23263C10.3721 7.16286 10.1628 7.11635 9.7907 6.9303L9.53487 6.79077L8.76744 6.76751L7.97675 6.74426L7.93023 6.83728H6.34884V6.90705C6.34884 6.95356 6.39534 7.1396 6.44186 7.39542C6.44186 7.39542 6.53488 7.81402 6.48837 7.86054C6.44186 7.90705 6.37209 7.95356 6.37209 7.95356L6.46512 8.48844C6.5814 9.25589 6.60465 9.27914 6.60465 9.55821V9.81402L6.55813 9.90705C6.53488 9.95356 6.48837 10.0698 6.41861 10.1164L6.32558 10.2326L6.11628 10.3257C6 10.3722 5.93024 10.4187 5.88372 10.4187C5.86047 10.4187 5.76744 10.4419 5.74418 10.4652C5.72093 10.4652 5.74419 10.5117 5.72093 10.5117C5.67442 10.5117 5.30233 10.535 5.30233 10.535C5.06977 10.5582 4.44186 10.5815 3.86047 10.628L2.8372 10.6745L2.69768 10.7675C2.39535 10.9536 2.13954 11.1861 2 11.3722L1.83721 11.535C1.7907 11.5582 1.72093 11.5815 1.65116 11.5815C1.53488 11.5815 1.46511 11.535 1.46511 11.4652C1.44186 11.3954 1.48837 11.2791 1.48837 11.2791Z" fill="white"/>
<path d="M0.0697632 11.6279V11.6744C0.0697632 12.1163 0.4186 12.4884 0.883717 12.4884H17.5349C17.9767 12.4884 18.3488 12.1396 18.3488 11.6744V11.6279H0.0697632Z" fill="url(#paint3_linear_107_5919)"/>
<path d="M18.3256 3.2793C17.8837 3.2793 17.5349 3.53511 17.5349 3.86069C17.5349 4.18627 17.8837 4.44209 18.3256 4.44209C18.7674 4.44209 19.1163 4.18627 19.1163 3.86069C19.093 3.53511 18.7442 3.2793 18.3256 3.2793ZM19.1628 3.72116C19.2093 3.81418 19.2558 3.93046 19.2558 4.06999C19.2558 4.51186 18.8372 4.86069 18.3256 4.86069C17.8139 4.86069 17.4186 4.51186 17.4186 4.06999C17.4186 4.00023 17.4418 3.93046 17.4418 3.86069C17.3953 3.97697 17.3721 4.06999 17.3721 4.20953C17.3721 4.6979 17.7907 5.11651 18.3256 5.11651C18.8605 5.11651 19.279 4.72116 19.279 4.20953C19.3023 4.00023 19.2325 3.86069 19.1628 3.72116Z" fill="url(#paint4_radial_107_5919)"/>
<path d="M18.3256 3.23242C17.7674 3.23242 17.3256 3.67428 17.3256 4.23242C17.3256 4.79056 17.7674 5.23242 18.3256 5.23242C18.8837 5.23242 19.3256 4.79056 19.3256 4.23242C19.3256 3.67428 18.8605 3.23242 18.3256 3.23242ZM18 3.32545C18 3.32545 18.186 3.27893 18.3256 3.27893C18.4651 3.27893 18.8139 3.3487 18.9767 3.558C19.2791 3.97661 18.9302 4.23242 18.8837 4.27893C18.8837 4.23242 18.8139 3.97661 18.7442 3.86033C18.6977 3.79056 18.6511 3.72079 18.6046 3.67428C18.5349 3.60452 18.4884 3.558 18.3953 3.48824C18.1395 3.41847 18.3488 3.48824 18.4419 3.558C18.4419 3.558 18.8139 3.88358 18.8372 4.27893C18.6977 4.37196 18.5116 4.44173 18.3256 4.44173C17.8837 4.44173 17.5581 4.18591 17.5581 3.86033C17.6279 3.46498 17.8605 3.41847 17.8837 3.37196C17.907 3.37196 17.9535 3.3487 18 3.32545ZM18.3256 5.06963C17.4419 5.02312 17.279 4.27893 17.4418 3.83707C17.2558 4.27893 17.6512 4.81382 18.3256 4.83707C18.7209 4.83707 18.8372 4.69754 18.8372 4.69754C18.8372 4.69754 18.8372 4.79056 18.8139 4.83707C18.8139 4.88359 18.7907 4.95335 18.7907 4.95335C18.6512 5.04638 18.6046 5.04638 18.3256 5.06963Z" fill="url(#paint5_radial_107_5919)"/>
<path d="M18.8837 4.34888C18.8605 4.25586 18.8605 4.20935 18.8372 4.13958L18.8139 4.0233C18.6977 3.69772 18.5349 3.58144 18.3256 3.4419C18.2558 3.39539 18.1163 3.32563 18.0465 3.30237C18.1395 3.27911 18.1628 3.27912 18.2093 3.25586C18.4186 3.25586 18.6046 3.25586 18.8372 3.37214C19.093 3.51167 19.2325 3.69772 19.2325 3.90702C19.2325 3.97679 19.2326 4.0233 19.2093 4.06981C19.186 4.18609 19.1395 4.27911 19.0465 4.39539C19.0233 4.4419 18.9767 4.44191 18.9535 4.44191C18.8837 4.46516 18.8837 4.39539 18.8837 4.34888Z" fill="url(#paint6_linear_107_5919)"/>
<path d="M18.6279 3.76754C18.6279 4.0001 18.4419 4.20941 18.1861 4.20941C17.9302 4.20941 17.7442 4.02336 17.7442 3.76754C17.7442 3.53499 17.9302 3.32568 18.1861 3.32568C18.4419 3.32568 18.6279 3.53499 18.6279 3.76754Z" fill="url(#paint7_radial_107_5919)"/>
<path d="M17.8605 3.90683C18 3.76729 18.2093 3.67427 18.5582 3.72078C18.4419 3.58125 18.3256 3.48822 18.1628 3.41846C17.8605 3.48822 17.721 3.62776 17.6512 3.81381C17.6977 3.81381 17.7442 3.83706 17.8605 3.90683Z" fill="white" stroke="white"/>
<path d="M10.3023 13.7676C9.97675 13.7676 9.74418 13.8839 9.65115 14.1397C9.60464 14.2327 9.60465 14.256 9.60465 14.4187C9.60465 14.5583 9.6279 14.6048 9.65115 14.6513C9.74418 14.8141 9.86047 14.8839 10.2558 15.0234C10.6512 15.1629 10.7209 15.2094 10.7209 15.3722C10.7209 15.4653 10.6744 15.535 10.5581 15.6048C10.4884 15.6513 10.4651 15.6513 10.3256 15.6513C10.1395 15.6513 10.0232 15.6048 9.88371 15.4885C9.8372 15.442 9.76743 15.4187 9.76743 15.4187C9.74418 15.4187 9.53488 15.628 9.53488 15.6513C9.53488 15.6746 9.69767 15.8141 9.76743 15.8606C9.86046 15.9071 9.95349 15.9536 10.0698 15.9769C10.2093 16.0001 10.5116 16.0001 10.6279 15.9536C10.8372 15.8839 10.9767 15.7676 11.0465 15.6048C11.0698 15.535 11.093 15.4885 11.093 15.349C11.093 15.1862 11.093 15.1629 11.0465 15.0932C11 15.0001 10.907 14.9071 10.7907 14.8373C10.7442 14.8141 10.5814 14.7443 10.4186 14.6978C10.2558 14.6513 10.093 14.5815 10.0698 14.5583C9.95349 14.4885 9.93023 14.349 10.0233 14.2559C10.1395 14.1164 10.4884 14.1164 10.6977 14.2792C10.7442 14.3257 10.7907 14.349 10.7907 14.349C10.814 14.349 11.0233 14.1397 11.0233 14.1164C11.0233 14.0699 10.8837 13.9536 10.7442 13.9071C10.5814 13.7908 10.4884 13.7676 10.3023 13.7676ZM15.1628 13.7676C14.9535 13.7676 14.8372 13.7908 14.6744 13.8839C14.4651 14.0001 14.3023 14.1862 14.2093 14.4885C14.186 14.6048 14.1628 14.6513 14.1628 14.8839C14.1628 15.1862 14.186 15.3025 14.2791 15.4885C14.4186 15.7443 14.6512 15.9304 14.9302 15.9769C15.2791 16.0466 15.6512 15.9536 15.8605 15.7443C16.0465 15.5583 16.093 15.3722 16.1163 15.0001V14.7443H15.2325V15.1629H15.3721C15.5116 15.1629 15.5116 15.1629 15.5116 15.2094C15.5116 15.3025 15.4419 15.4187 15.3488 15.442C15.2791 15.4653 15.1163 15.4653 15.0465 15.442C14.9767 15.4187 14.8837 15.3025 14.8372 15.2094C14.7907 15.0699 14.7907 14.8839 14.8139 14.7443C14.8605 14.4653 14.9535 14.3257 15.1628 14.3257C15.2326 14.3257 15.3488 14.3722 15.3721 14.4187C15.3953 14.442 15.4186 14.4653 15.4419 14.4653C15.4884 14.4653 15.9535 14.2792 15.9767 14.2559C16 14.2327 15.907 14.0699 15.8139 14.0001C15.6744 13.8373 15.4651 13.7676 15.1628 13.7676ZM6 13.8141V15.9536H6.41861C6.74419 15.9536 6.86047 15.9304 6.93024 15.9071C7.39535 15.7676 7.65116 15.4187 7.65116 14.8606C7.65116 14.6513 7.6279 14.4885 7.53488 14.3257C7.4186 14.0932 7.25581 13.9304 7 13.8606C6.88372 13.8141 6.86046 13.8141 6.44186 13.8141H6ZM4.27907 13.8141H3.90698V15.9304C3.90698 15.9536 3.95348 15.9536 4.06976 15.9536H4.23255V15.2094C4.23255 14.8606 4.2093 14.4885 4.2093 14.4885C4.2093 14.4885 4.23256 14.4885 4.39535 14.7211C4.48837 14.8606 4.69767 15.2094 4.86046 15.4653L5.18605 15.9536H5.51162V13.8141H5.13954V14.5583C5.13954 15.0466 5.13953 15.3025 5.11627 15.2792C5.11627 15.256 4.90697 14.9304 4.65115 14.535L4.27907 13.8141ZM17.5349 13.8141H16.907L16.1628 15.9304H16.814L16.907 15.5815L17.5116 15.6048L17.6279 15.9536L18.2791 15.9304L17.5349 13.8141ZM0 13.8141V15.9536C0.0232558 15.9769 0.930232 15.9769 1.04651 15.9536C1.16279 15.9304 1.32558 15.8606 1.39535 15.7908C1.51163 15.6746 1.60465 15.442 1.58139 15.2327C1.55814 15.0466 1.48837 14.9071 1.34883 14.8373C1.32558 14.8141 1.27907 14.7908 1.27907 14.7908L1.34883 14.7211C1.46511 14.628 1.48837 14.535 1.48837 14.3257C1.48837 14.1862 1.46511 14.1629 1.44186 14.0699C1.37209 13.9536 1.27907 13.8606 1.13953 13.8141C1.04651 13.7908 0.999996 13.7908 0.511624 13.7908H0V13.8141ZM3.16279 13.8141V14.442C3.16279 14.7908 3.16278 15.1164 3.13953 15.1862C3.09302 15.4885 2.95348 15.628 2.67441 15.6048C2.48836 15.6048 2.34884 15.5118 2.27907 15.3257C2.25582 15.2559 2.25582 15.2094 2.23256 14.5118V13.7908H1.86046V14.5118C1.8372 15.1862 1.86046 15.9536 2.67441 15.9769C3.09302 15.9769 3.34884 15.7908 3.46511 15.3955C3.48837 15.3257 3.48836 15.1862 3.48836 14.5583V13.8141H3.16279ZM13.186 13.8141V15.9536H13.814V13.8141H13.186ZM7.90697 13.8141V15.9304C7.90697 15.9536 8.06977 15.9536 8.62791 15.9536H9.34883V15.5815H8.27907V14.9769H8.88372V14.6048H8.27907V14.1397H9.30232V13.8141H7.90697ZM11.4651 13.8141V15.9304C11.4651 15.9536 11.6279 15.9536 12.186 15.9536H12.8837V15.3955H12.093V13.8141H11.4651ZM0.697674 14.1397C0.813953 14.1397 0.906977 14.1397 0.930232 14.1629C1.06977 14.1862 1.16279 14.3025 1.13953 14.442C1.13953 14.535 1.04651 14.6048 0.97674 14.628C0.953484 14.628 0.790693 14.6513 0.627903 14.6513H0.32558V14.1397H0.697674ZM6.34884 14.1397H6.44186C6.58139 14.1397 6.81395 14.1629 6.88372 14.1862C7.13954 14.2792 7.25581 14.5118 7.25581 14.8606C7.25581 15.0234 7.23256 15.1397 7.18604 15.2559C7.11628 15.4187 6.97674 15.5118 6.79069 15.5583C6.72093 15.5815 6.60464 15.5815 6.51162 15.5815H6.34884V14.1397ZM17.2093 14.535L17.3721 15.0932H17.0233L17.2093 14.535ZM0.32558 14.9536H0.604653C0.976745 14.9536 1.04651 14.9769 1.11628 15.0466C1.27907 15.2094 1.2093 15.5118 0.999997 15.5815C0.953485 15.5815 0.790693 15.6048 0.627903 15.6048H0.32558V14.9536Z" fill="black"/>
<defs>
<linearGradient id="paint0_linear_107_5919" x1="10.4267" y1="6.83372" x2="15.0002" y2="9.03884" gradientUnits="userSpaceOnUse">
<stop stop-color="#CD090D"/>
<stop offset="1" stop-color="#F39272"/>
</linearGradient>
<linearGradient id="paint1_linear_107_5919" x1="9.2005" y1="0.417601" x2="9.2005" y2="1.10923" gradientUnits="userSpaceOnUse">
<stop stop-color="white"/>
<stop offset="0.3" stop-color="white" stop-opacity="0.498"/>
<stop offset="1" stop-color="white" stop-opacity="0"/>
</linearGradient>
<linearGradient id="paint2_linear_107_5919" x1="0.110461" y1="6.53643" x2="11.5474" y2="6.53643" gradientUnits="userSpaceOnUse">
<stop stop-color="#8E0902"/>
<stop offset="1" stop-color="#E2080E"/>
</linearGradient>
<linearGradient id="paint3_linear_107_5919" x1="9.19302" y1="12.7035" x2="9.19302" y2="11.6065" gradientUnits="userSpaceOnUse">
<stop stop-color="#580000" stop-opacity="0.863"/>
<stop offset="0.547" stop-color="#740500" stop-opacity="0.514"/>
<stop offset="0.815" stop-color="#800700" stop-opacity="0.255"/>
<stop offset="1" stop-color="#8C0A00" stop-opacity="0"/>
</linearGradient>
<radialGradient id="paint4_radial_107_5919" cx="0" cy="0" r="1" gradientUnits="userSpaceOnUse" gradientTransform="translate(18.1987 3.76065) rotate(136.037) scale(1.81281 1.73609)">
<stop stop-color="white"/>
<stop offset="0.5" stop-color="#464646"/>
<stop offset="1"/>
</radialGradient>
<radialGradient id="paint5_radial_107_5919" cx="0" cy="0" r="1" gradientUnits="userSpaceOnUse" gradientTransform="translate(18.3698 3.83172) scale(0.991632 0.991629)">
<stop stop-color="#EFEFEF"/>
<stop offset="0.55" stop-color="#AFAFAF"/>
<stop offset="1" stop-color="#3F3F3F"/>
</radialGradient>
<linearGradient id="paint6_linear_107_5919" x1="18.6102" y1="3.4526" x2="18.5623" y2="3.97074" gradientUnits="userSpaceOnUse">
<stop stop-color="white" stop-opacity="0.766"/>
<stop offset="1" stop-color="#AAAAAA" stop-opacity="0.475"/>
</linearGradient>
<radialGradient id="paint7_radial_107_5919" cx="0" cy="0" r="1" gradientUnits="userSpaceOnUse" gradientTransform="translate(18.1863 3.77507) scale(0.431841 0.431842)">
<stop stop-color="white"/>
<stop offset="1" stop-color="white" stop-opacity="0"/>
</radialGradient>
</defs>
</svg>
