<svg width="8" height="9" viewBox="0 0 8 9" fill="none" xmlns="http://www.w3.org/2000/svg">
<g clip-path="url(#clip0_1246_2738)">
<path d="M0.212494 4.5C0.212494 6.1375 1.26249 7.525 2.71249 8.0375V0.962502C1.26249 1.475 0.212494 2.8625 0.212494 4.5Z" fill="#75A843"/>
<path d="M7.71249 4.5C7.71249 2.8625 6.66249 1.475 5.21249 0.962502V8.0375C6.67499 7.525 7.71249 6.1375 7.71249 4.5Z" fill="#ED4C5C"/>
<path d="M2.71249 8.0375C3.09999 8.175 3.52499 8.25 3.96249 8.25C4.39999 8.25 4.82499 8.175 5.21249 8.0375V0.9625C4.82499 0.825 4.39999 0.75 3.96249 0.75C3.52499 0.75 3.09999 0.825 2.71249 0.9625V8.0375Z" fill="white"/>
</g>
<defs>
<clipPath id="clip0_1246_2738">
<rect width="8" height="8" fill="white" transform="translate(0 0.5)"/>
</clipPath>
</defs>
</svg>
