<svg width="23" height="22" viewBox="0 0 23 22" fill="none" xmlns="http://www.w3.org/2000/svg">
<path fill-rule="evenodd" clip-rule="evenodd" d="M7.79831 0H16.0483C19.8447 0 22.9233 3.07862 22.9233 6.875V15.125C22.9233 18.9214 19.8447 22 16.0483 22H7.79831C4.00193 22 0.923309 18.9214 0.923309 15.125V6.875C0.923309 3.07862 4.00193 0 7.79831 0ZM16.0483 19.9375C18.7021 19.9375 20.8608 17.7787 20.8608 15.125V6.875C20.8608 4.22125 18.7021 2.0625 16.0483 2.0625H7.79831C5.14456 2.0625 2.98581 4.22125 2.98581 6.875V15.125C2.98581 17.7787 5.14456 19.9375 7.79831 19.9375H16.0483Z" fill="white"/>
<path fill-rule="evenodd" clip-rule="evenodd" d="M6.42331 11C6.42331 7.96263 8.88593 5.5 11.9233 5.5C14.9607 5.5 17.4233 7.96263 17.4233 11C17.4233 14.0374 14.9607 16.5 11.9233 16.5C8.88593 16.5 6.42331 14.0374 6.42331 11ZM8.48581 11C8.48581 12.8948 10.0286 14.4375 11.9233 14.4375C13.8181 14.4375 15.3608 12.8948 15.3608 11C15.3608 9.10388 13.8181 7.5625 11.9233 7.5625C10.0286 7.5625 8.48581 9.10388 8.48581 11Z" fill="white"/>
<circle cx="17.8358" cy="5.08737" r="0.732875" fill="white"/>
</svg>
