<svg width="16" height="16" viewBox="0 0 16 16" fill="none" xmlns="http://www.w3.org/2000/svg">
<g clip-path="url(#clip0_107_5934)">
<path d="M5.90576 6.6898C6.22275 6.23268 6.70435 5.91887 7.22495 5.73975C7.12609 5.81276 7.04175 5.90164 6.95876 5.99098C7.24491 5.96513 7.54013 5.98327 7.80496 6.1039C7.8367 6.35875 7.85802 6.61497 7.89657 6.86892C7.94645 6.61543 7.96005 6.35694 7.99588 6.10163C8.26071 5.98417 8.55412 5.96513 8.83936 5.99098C8.76227 5.91071 8.68608 5.82954 8.60627 5.75244C9.11417 5.93021 9.58036 6.24311 9.89009 6.68844C9.79848 6.64445 9.70869 6.5991 9.61845 6.55285C9.72955 6.81587 9.79984 7.10111 9.77535 7.38862C9.54453 7.49746 9.30237 7.58588 9.08288 7.71785C9.33411 7.67885 9.58126 7.61899 9.83068 7.57047C10.0234 7.78905 10.1241 8.0625 10.2107 8.33595C10.257 8.24117 10.3019 8.14594 10.3495 8.05207C10.3395 8.5958 10.1735 9.13544 9.847 9.57351C9.86877 9.4683 9.88918 9.36309 9.90959 9.25788C9.68829 9.44291 9.43977 9.6048 9.15317 9.66421C8.9813 9.47873 8.82258 9.27965 8.63393 9.1105C8.74005 9.33997 8.87836 9.5531 8.99899 9.77486C8.85433 10.0302 8.6235 10.2161 8.37998 10.3712C8.48428 10.3866 8.58904 10.4011 8.69334 10.4165C8.43984 10.48 8.18181 10.5408 7.91879 10.5408C7.64216 10.5462 7.37007 10.4846 7.10387 10.4156C7.20908 10.4002 7.31429 10.3862 7.4195 10.3707C7.17462 10.2166 6.94198 10.0302 6.79913 9.7735C6.92112 9.5522 7.05807 9.33951 7.16373 9.1096C6.97554 9.2792 6.81682 9.47783 6.6454 9.66375C6.35834 9.60571 6.10938 9.44336 5.88853 9.25788C5.90894 9.36445 5.92935 9.47102 5.95247 9.57714C5.62596 9.13635 5.45319 8.59444 5.45001 8.04663C5.49264 8.14639 5.54116 8.24344 5.59059 8.33958C5.66769 8.06204 5.77697 7.79041 5.96744 7.57001C6.21595 7.61763 6.46219 7.67703 6.71206 7.71694C6.4953 7.58316 6.25313 7.49746 6.02322 7.38771C5.99691 7.10066 6.06902 6.81587 6.17922 6.55285C6.08852 6.5991 5.99737 6.64536 5.90576 6.6898ZM6.82271 7.73826C6.94334 8.16907 7.09843 8.5899 7.22903 9.01754C7.67662 9.0189 8.12421 9.02117 8.57135 9.01663C8.70331 8.59308 8.8439 8.17269 8.9813 7.75095C8.62713 7.47932 8.25935 7.22718 7.90246 6.95962C7.53967 7.21539 7.18595 7.4834 6.82271 7.73826ZM41.4082 7.06755C41.7778 6.97504 42.1896 7.01903 42.5202 7.21403C42.8712 7.42354 43.0662 7.82351 43.1065 8.22031C43.1609 8.62119 43.0526 9.04611 42.7895 9.3572C42.4218 9.8066 41.7388 9.94446 41.2164 9.70411C40.869 9.54403 40.6409 9.1953 40.5606 8.82934C40.4677 8.39944 40.5203 7.92464 40.7597 7.54915C40.9067 7.31561 41.1407 7.13875 41.4082 7.06755ZM26.8101 7.16278C27.2309 7.09793 27.6835 7.21901 27.9941 7.51514C28.5442 8.03801 28.5905 9.00076 28.0857 9.56943C27.6164 10.1077 26.7076 10.2279 26.1507 9.75808C25.5725 9.25471 25.4705 8.29151 25.9258 7.67567C26.1339 7.3927 26.4641 7.2104 26.8101 7.16278ZM48.5356 7.16777C48.9569 7.09431 49.4154 7.20586 49.7333 7.49882C50.297 8.01443 50.3518 8.98534 49.8489 9.56127C49.3846 10.1027 48.4781 10.2297 47.9171 9.7667C47.4105 9.33724 47.27 8.56178 47.5198 7.9591C47.6894 7.54008 48.0899 7.23398 48.5356 7.16777Z" fill="white"/>
<path d="M6.65215 0.152883C6.87073 0.0866737 7.09657 0.0444996 7.32603 0.0590111C7.52375 1.09976 7.71422 2.14142 7.90921 3.18262C7.92645 3.25654 7.9396 3.37444 7.82985 3.37172C6.87119 3.54903 5.98825 4.1168 5.44996 4.93262C5.38149 5.02966 5.33433 5.14394 5.2459 5.22557C5.13434 5.20244 5.04183 5.13124 4.94387 5.07728C4.18973 4.63694 3.43422 4.19888 2.67917 3.7599C2.56534 3.69233 2.44426 3.6352 2.34268 3.54949C2.34132 3.50006 2.35493 3.4538 2.3835 3.41163C3.30407 1.81989 4.87449 0.62224 6.65215 0.152883Z" fill="#7C227C"/>
<path d="M8.10154 0.893773C10.1268 0.563182 12.2804 1.19217 13.8177 2.54899C13.8699 2.58754 13.8771 2.65919 13.8241 2.70046C13.1484 3.48816 12.465 4.26906 11.7879 5.05586C11.7376 5.12343 11.6419 5.20052 11.5734 5.10756C10.9186 4.53843 10.0583 4.21238 9.19036 4.21419C8.96089 4.20648 8.73506 4.25637 8.50605 4.25319C8.34324 3.18977 8.19087 2.12453 8.0317 1.06066C8.01719 0.999435 8.01447 0.89468 8.10154 0.893773Z" fill="#C32B26"/>
<path d="M1.18589 3.56855C1.24801 3.56174 1.30152 3.608 1.3564 3.63067C2.25883 4.11953 3.1658 4.59932 4.06778 5.08863C4.1544 5.11493 4.15531 5.2079 4.10814 5.27048C3.64105 6.1389 3.54673 7.20096 3.86598 8.13514C3.89455 8.22357 3.93582 8.30973 3.94534 8.40361C3.92312 8.46664 3.84739 8.4739 3.79615 8.50201C2.84292 8.86571 1.89196 9.23484 0.940096 9.60126C0.881597 9.61895 0.789539 9.66067 0.769132 9.5736C2.13683e-05 7.68574 0.140148 5.46412 1.10108 3.67013C1.12027 3.62962 1.14945 3.59466 1.18589 3.56855Z" fill="#3C5399"/>
<path d="M13.59 3.77655C13.6395 3.72077 13.7097 3.74798 13.7501 3.79832C15.2416 5.19596 16.0724 7.27065 15.9413 9.31134C15.9491 9.40884 15.8284 9.38662 15.7681 9.38934C14.7251 9.33583 13.6812 9.29002 12.6386 9.23515C12.5325 9.24195 12.5452 9.1109 12.5466 9.04015C12.5692 8.48055 12.4527 7.91778 12.221 7.40806C12.0155 6.9387 11.6877 6.53828 11.3253 6.18093C11.3856 6.10565 11.4459 6.03082 11.5122 5.96099C12.2078 5.23541 12.8935 4.50031 13.59 3.77655Z" fill="#D57C2C"/>
<path d="M7.39768 5.48495C7.93733 5.38337 8.50963 5.44822 9.00846 5.6804C9.6574 5.97698 10.1766 6.5452 10.4097 7.21999C10.6483 7.89432 10.5988 8.66615 10.2705 9.30239C9.97439 9.8892 9.45197 10.3586 8.83569 10.5885C8.31282 10.7871 7.72691 10.8125 7.18863 10.6628C6.4957 10.4742 5.89211 9.98897 5.55427 9.3559C5.24091 8.78088 5.15837 8.08705 5.31709 7.45217C5.55381 6.4672 6.40047 5.66544 7.39768 5.48495ZM5.90572 6.68986C5.99732 6.64542 6.08847 6.59916 6.17917 6.55291C6.06897 6.81593 5.99687 7.10072 6.02317 7.38777C6.25309 7.49752 6.49525 7.58323 6.71201 7.717C6.46214 7.6771 6.2159 7.61769 5.96739 7.57008C5.77693 7.79047 5.66764 8.06211 5.59055 8.33964C5.54112 8.2435 5.49259 8.14646 5.44997 8.04669C5.45314 8.5945 5.62592 9.13641 5.95243 9.5772C5.9293 9.47109 5.90889 9.36452 5.88849 9.25795C6.10933 9.44342 6.3583 9.60577 6.64535 9.66382C6.81677 9.47789 6.97549 9.27926 7.16369 9.10966C7.05802 9.33958 6.92107 9.55226 6.79908 9.77356C6.94193 10.0302 7.17457 10.2166 7.41945 10.3708C7.31424 10.3862 7.20903 10.4003 7.10383 10.4157C7.37002 10.4846 7.64211 10.5463 7.91874 10.5409C8.18176 10.5409 8.43979 10.4801 8.69329 10.4166C8.58899 10.4012 8.48423 10.3867 8.37993 10.3713C8.62345 10.2162 8.85428 10.0302 8.99894 9.77492C8.87831 9.55317 8.74 9.34003 8.63389 9.11057C8.82254 9.27972 8.98125 9.4788 9.15313 9.66427C9.43973 9.60486 9.68824 9.44297 9.90954 9.25795C9.88913 9.36316 9.86873 9.46836 9.84696 9.57357C10.1735 9.13551 10.3394 8.59586 10.3494 8.05213C10.3018 8.146 10.2569 8.24123 10.2107 8.33601C10.124 8.06256 10.0234 7.78911 9.83063 7.57053C9.58122 7.61905 9.33407 7.67891 9.08284 7.71791C9.30232 7.58595 9.54448 7.49752 9.77531 7.38868C9.7998 7.10117 9.72951 6.81593 9.6184 6.55291C9.70864 6.59916 9.79844 6.64451 9.89004 6.6885C9.58031 6.24318 9.11413 5.93027 8.60622 5.75251C8.68604 5.8296 8.76222 5.91077 8.83931 5.99104C8.55407 5.96519 8.26067 5.98424 7.99583 6.10169C7.96001 6.357 7.9464 6.61549 7.89652 6.86899C7.85797 6.61504 7.83666 6.35882 7.80491 6.10396C7.54008 5.98333 7.24486 5.96519 6.95871 5.99104C7.0417 5.9017 7.12605 5.81282 7.22491 5.73981C6.70431 5.91894 6.2227 6.23275 5.90572 6.68986Z" fill="#010000"/>
<path d="M6.82269 7.73811C7.18593 7.48325 7.53965 7.21524 7.90244 6.95947C8.25933 7.22703 8.62711 7.47917 8.98128 7.7508C8.84388 8.17255 8.7033 8.59293 8.57133 9.01648C8.1242 9.02102 7.67661 9.01875 7.22902 9.01739C7.09841 8.58975 6.94332 8.16892 6.82269 7.73811Z" fill="#020001"/>
<path d="M2.89053 9.31046C2.99302 9.26466 3.09641 9.21841 3.20706 9.19482C3.29141 9.29323 3.33449 9.41839 3.3939 9.53222C3.84829 10.4265 4.69721 11.089 5.65588 11.3661C5.63593 11.4613 5.61597 11.557 5.58877 11.6504C5.32574 12.4808 5.06952 13.3129 4.80968 14.1442C4.76569 14.2825 4.73395 14.4258 4.67136 14.5573C4.62511 14.6221 4.54892 14.5763 4.48861 14.565C2.54089 13.956 0.893379 12.454 0.121094 10.5639V10.5231C1.03441 10.0982 1.96995 9.72041 2.89053 9.31046Z" fill="#5B82BD"/>
<path d="M11.5548 9.63167C11.6219 9.59766 11.699 9.61626 11.7711 9.61762C12.8173 9.70559 13.8649 9.77498 14.9106 9.86703C14.916 9.9219 14.9192 9.97723 14.9206 10.033C14.7714 12.0533 13.6848 13.9806 12.04 15.1619C11.967 15.2331 11.8917 15.1465 11.8518 15.0876C11.2405 14.2463 10.6193 13.4115 10.0098 12.5689C9.93495 12.495 10.0161 12.4197 10.0773 12.3771C10.817 11.8329 11.329 10.9939 11.4854 10.0897C11.5149 9.93778 11.5072 9.77951 11.5548 9.63167Z" fill="#F8E437"/>
<path d="M8.97085 11.9096C9.0298 11.8692 9.07061 11.949 9.10281 11.9853C9.67465 12.8333 10.242 13.6849 10.8138 14.533C10.841 14.5729 10.8646 14.615 10.8859 14.6586C10.8886 14.7266 10.8179 14.7565 10.7739 14.7933C9.89006 15.3783 8.87425 15.7624 7.82398 15.9034C7.64622 15.9392 7.46527 15.9519 7.28433 15.9311C6.92109 15.9342 6.55649 15.9138 6.19552 15.9555C5.77559 15.8698 5.34251 15.834 4.93573 15.6916C4.86136 15.6712 4.89991 15.5769 4.90853 15.5238C5.18606 14.5284 5.4577 13.5308 5.73478 12.5349C5.73704 12.4315 5.83998 12.3957 5.92342 12.4374C6.59005 12.6202 7.30837 12.6029 7.96728 12.3948C8.3269 12.2896 8.6525 12.1018 8.97085 11.9096Z" fill="#61A244"/>
</g>
<defs>
<clipPath id="clip0_107_5934">
<rect width="16" height="16" fill="white"/>
</clipPath>
</defs>
</svg>
