<svg width="16" height="16" viewBox="0 0 16 16" fill="none" xmlns="http://www.w3.org/2000/svg">
<path fill-rule="evenodd" clip-rule="evenodd" d="M0 0H16V16H0V0Z" fill="white"/>
<path fill-rule="evenodd" clip-rule="evenodd" d="M10.3618 15.7378C10.4459 15.5791 10.5953 15.0655 10.3152 14.5239C10.3993 14.225 10.1751 14.1595 10.0818 13.4966C10.1752 13.3005 10.2405 13.067 10.2312 12.8055C10.2125 12.5721 10.0444 12.4601 9.95104 12.2827C9.80163 11.6849 9.71763 11.05 9.49343 10.4897C9.41881 10.2188 9.23204 9.98539 9.10122 9.7333C8.97049 9.06095 8.90516 8.34194 8.69972 7.70694C8.73844 7.67749 8.77298 7.64292 8.8024 7.60418C8.66228 7.03459 8.45684 6.20345 8.15802 5.95127C8.23264 5.67113 8.34478 5.34433 8.38214 5.09216C8.51279 4.91477 8.6622 4.71863 8.95173 4.58789C9.10114 4.99877 9.16655 5.51242 9.25055 5.92322C9.43732 6.3341 9.69879 6.69825 9.77349 7.07186C9.29728 7.25862 8.9704 7.69756 8.9704 8.21104C8.9704 8.8741 9.50273 9.40633 10.1563 9.40633C10.642 9.40633 11.0622 9.09813 11.2489 8.67795V14.6357C11.249 15.1681 10.8755 15.6164 10.3618 15.7378Z" fill="#CC2229"/>
<path fill-rule="evenodd" clip-rule="evenodd" d="M9.80296 15.7555C9.61619 15.3073 9.72825 14.9337 9.76561 14.4201C9.71896 14.1867 9.68152 13.9532 9.64417 13.7291C9.38278 13.3276 9.2894 12.9634 9.22399 12.5338C8.7291 12.095 8.15005 11.7121 7.75793 11.2359C7.05752 10.5728 6.54396 9.89108 6.1891 9.12535C6.06775 9.11614 5.94639 9.10667 5.81558 9.10667C5.59146 8.49973 5.0779 7.76197 5.12455 7.28576C5.14322 6.8655 5.27396 6.48267 5.43267 6.05311C5.29255 6.02506 5.1619 6.07179 5.01249 5.9877C4.77907 5.83829 4.81643 5.57682 4.80705 5.34332C4.90973 4.87641 5.1619 4.48421 5.32999 4.06403C5.49808 3.6998 5.65687 3.33565 5.81558 2.98079C6.03969 2.72862 6.17981 2.55123 6.45987 2.4298C6.70267 2.40174 6.94554 2.43909 7.20693 2.38315C7.31899 2.34579 7.4591 2.31774 7.50584 2.24303C7.6179 2.08424 7.58984 1.91615 7.63657 1.72009C7.48716 1.63609 7.50584 1.20653 7.67392 1.05712C7.67392 0.758294 7.79528 0.356709 8.04745 0.25403L5.88098 0.235353C5.73253 0.235091 5.58547 0.26414 5.44827 0.320834C5.31106 0.377528 5.18639 0.460752 5.08142 0.565733C4.97645 0.670713 4.89323 0.795385 4.83655 0.932597C4.77987 1.06981 4.75083 1.21686 4.7511 1.36532V14.6348C4.75083 14.7833 4.77987 14.9303 4.83655 15.0675C4.89323 15.2048 4.97645 15.3294 5.08142 15.4344C5.18639 15.5394 5.31106 15.6226 5.44827 15.6793C5.58547 15.736 5.73253 15.7651 5.88098 15.7648L9.80296 15.7555ZM5.46994 12.9915H5.9649L6.32905 14.1586V12.9915H6.77729V14.9431H6.27302L5.8995 13.7759V14.9431H5.46994V12.9915ZM6.85199 12.9915H7.43097C8.18732 12.9915 7.99126 13.9064 7.71111 13.9251C8.13129 13.8785 8.18732 14.9431 7.50567 14.9431H6.85199V12.9915ZM7.30023 13.3089V13.7477H7.41237C7.59914 13.7477 7.59914 13.3089 7.41237 13.3089H7.30023ZM7.30023 14.084V14.6256H7.41237C7.62711 14.6256 7.59914 14.084 7.41237 14.084H7.30023ZM8.36479 12.9915H8.96244L9.30791 14.9431H8.85038L8.81294 14.5976H8.49552L8.43941 14.9431H7.99126L8.36479 12.9915ZM8.54226 14.2521H8.77567L8.65423 13.2808L8.54226 14.2521Z" fill="#33348E"/>
<path fill-rule="evenodd" clip-rule="evenodd" d="M8.81844 0.284039C9.13594 0.582863 9.33209 1.01242 9.03326 1.53536C9.22003 1.65672 8.89315 1.87154 8.81844 2.03963C8.72514 2.3011 8.40764 2.45051 8.44499 2.54389C8.85579 2.79606 9.18267 3.04816 9.59356 3.37495C9.80838 3.6458 9.89238 4.72895 10.0137 5.55072C10.1912 6.06436 10.4433 6.50322 10.5367 7.08219C10.8636 7.20354 11.1156 7.45572 11.2464 7.75454V1.36719C11.2467 1.21874 11.2176 1.07169 11.1609 0.93448C11.1042 0.797272 11.021 0.672606 10.9161 0.567632C10.8111 0.462658 10.6864 0.379442 10.5492 0.322757C10.412 0.266072 10.265 0.237033 10.1165 0.237307L8.81844 0.284039Z" fill="#CC2229"/>
</svg>
