<svg width="16" height="16" viewBox="0 0 16 16" fill="none" xmlns="http://www.w3.org/2000/svg">
<path d="M7.99394 0C12.395 0 15.9879 3.59286 15.9879 8.00606C16 12.4305 12.395 16 7.94721 16C3.58161 16 0 12.395 0 7.99394C0 3.59286 3.58161 0.0121147 7.99394 0ZM4.35435 1.0185C4.28426 1.05398 4.23753 1.06522 4.20205 1.08859C3.48816 1.53337 2.84435 2.06036 2.30611 2.70416C1.32223 3.86284 0.749378 5.20844 0.620443 6.72969C0.526988 7.7828 0.538237 8.84803 0.81947 9.87777C2.08372 14.5826 7.35014 16.8186 11.611 14.4658C11.6578 14.4424 11.6932 14.419 11.7633 14.3836C11.7166 14.6059 11.6699 14.7929 11.6231 15.004C11.7054 14.9685 11.74 14.9573 11.7867 14.9339C13.0276 14.1612 14.0106 13.1435 14.6544 11.8204C15.5085 10.0647 15.6262 8.21547 15.2281 6.35414C14.1863 1.54375 8.76755 -0.891292 4.44867 1.47366C4.38983 1.50914 4.31974 1.54375 4.22628 1.59048C4.27215 1.38107 4.30763 1.21752 4.35435 1.0185Z" fill="#3B2050"/>
<path d="M4.36562 1.01851C4.31889 1.21753 4.28341 1.38108 4.23668 1.59222C4.33014 1.54549 4.40023 1.51001 4.45907 1.4754C8.77795 -0.888688 14.1854 1.55761 15.2385 6.35588C15.6478 8.22846 15.5198 10.0777 14.6648 11.8222C14.021 13.1444 13.038 14.1517 11.7971 14.9356C11.7616 14.959 11.7149 14.9711 11.6335 15.0057C11.6803 14.7833 11.727 14.6077 11.7737 14.3853C11.7036 14.4208 11.6569 14.4441 11.6214 14.4675C7.3614 16.8203 2.09412 14.5843 0.829867 9.87951C0.548634 8.83765 0.537385 7.78454 0.630841 6.73143C0.759775 5.21018 1.32138 3.86372 2.31651 2.70504C2.85475 2.06123 3.49855 1.53424 4.21245 1.08946C4.2488 1.06523 4.29552 1.05312 4.36562 1.01851Z" fill="white"/>
<path d="M9.63287 12.3362C9.57403 12.1372 9.5273 11.9736 9.49269 11.8326C9.09463 11.9961 8.73206 12.1839 8.34526 12.3007C7.64261 12.511 6.95207 12.4642 6.2849 12.1605C6.14471 12.1017 6.10924 12.0203 6.1326 11.868C6.27278 11.1887 6.33163 10.5224 6.15596 9.84316C6.14385 9.80768 6.1326 9.76095 6.12049 9.72634C6.12049 9.71422 6.09712 9.70297 6.07376 9.65625C5.72243 10.1711 5.34774 10.6514 4.84499 11.0494C4.44693 10.1832 4.44693 9.29367 4.56375 8.35738C4.318 8.42747 4.09561 8.49756 3.83774 8.56766C3.93119 7.74819 4.23579 7.05765 4.71519 6.40259C4.56289 6.36712 4.43395 6.34375 4.28252 6.32039C4.58712 5.69994 5.00853 5.19719 5.58138 4.76365C5.48793 5.20844 5.51129 5.58312 5.89723 5.85224C5.86175 5.72331 5.82714 5.59437 5.80377 5.45419C5.79166 5.34862 5.79166 5.24391 5.80377 5.14959C5.87387 4.7749 6.14298 4.62261 6.50642 4.72818C6.57652 4.75154 6.64661 4.7749 6.74093 4.82163C6.63536 4.56376 6.4597 4.45906 6.24942 4.36474C6.24942 4.34137 6.24942 4.32926 6.23731 4.30589C6.57652 4.20032 6.90448 4.07139 7.2558 3.99005C7.5604 3.91995 7.88749 3.91995 8.20421 3.88448C8.5088 3.849 8.74244 3.96668 8.94147 4.18907C9.01156 4.25917 9.08165 4.32926 9.16386 4.39935C9.17597 4.38723 9.19934 4.38723 9.21059 4.37599C9.18722 4.25917 9.16386 4.15359 9.1405 4.02466C9.17598 4.02466 9.21059 4.02466 9.24607 4.03677C9.60864 4.14235 9.95997 4.28253 10.2524 4.52828C10.2992 4.56376 10.3693 4.61049 10.3814 4.66847C10.4515 4.90297 10.5103 5.14873 10.5804 5.37112C10.2412 5.13661 9.88987 4.89086 9.51518 4.63385C9.45634 4.80952 9.42173 4.93845 9.375 5.07864C9.10588 4.91509 8.87138 4.76279 8.62562 4.63385C8.53217 4.58713 8.40323 4.56376 8.29766 4.58713C7.88836 4.65722 7.50156 4.80952 7.15023 5.102C7.20907 5.14873 7.26705 5.18421 7.36051 5.2543C7.10264 5.38323 6.88025 5.50005 6.70545 5.75792C7.01005 5.71119 7.04466 5.91022 7.13812 6.08588C7.29042 6.39048 7.55953 6.54278 7.89874 6.55403C8.30805 6.56614 8.71821 6.55403 9.13963 6.55403C9.02281 6.42509 8.88176 6.29616 8.75369 6.15597C8.61351 5.99243 8.43785 5.93358 8.22671 5.95695C7.93422 5.98031 7.65299 5.91022 7.41935 5.72244C7.74731 5.3365 8.05104 5.32439 8.70696 5.67571C8.81254 5.61687 8.91724 5.57014 9.02281 5.51217C9.03492 5.54765 9.04618 5.55889 9.04618 5.55889C8.90599 5.85138 8.90599 5.85138 9.13963 6.08588C9.27981 6.22607 9.40875 6.37836 9.53768 6.51855C9.71335 6.48307 9.88901 6.43634 10.0647 6.43634C10.2403 6.42423 10.416 6.45971 10.615 6.47182C10.3572 6.19059 10.1002 5.93358 9.84228 5.66447C9.8544 5.6411 9.87776 5.61774 9.88901 5.59437C9.98247 5.65322 10.0759 5.69994 10.1815 5.75792C10.2983 5.73456 10.3684 5.50005 10.5328 5.66447C10.6496 5.78129 10.6384 5.89897 10.5207 6.0504C10.6142 6.15597 10.7197 6.24943 10.8253 6.37836C10.8487 6.29616 10.8608 6.26154 10.8841 6.21482H10.9196C11.7625 7.40898 12.0082 8.69659 11.5279 10.1356C11.4111 10.0067 11.3056 9.90113 11.1766 9.77307C11.0944 10.3234 10.9542 10.8028 10.6851 11.2363C10.429 11.6811 10.0777 12.0437 9.63287 12.3362ZM8.33314 7.5258C8.47332 7.79491 8.61437 8.04067 8.73119 8.28642C8.79004 8.41536 8.87138 8.43872 8.98906 8.40324C9.39837 8.29767 9.71508 8.04067 10.0422 7.7828C10.0543 7.77069 10.0777 7.74732 10.0777 7.72396C10.0777 7.54829 10.101 7.37263 10.0655 7.20908C10.0534 7.13899 9.90199 7.10351 9.81978 7.04554C9.76094 7.01006 9.71421 6.96333 9.65623 6.95208C9.57403 6.92872 9.48057 6.89324 9.39837 6.9166C9.00031 7.03429 8.67322 7.26879 8.33314 7.5258ZM9.07127 8.93023C9.118 9.0358 9.2002 9.16474 9.25818 9.30492C9.30491 9.41049 9.36375 9.43386 9.45721 9.38713C9.63287 9.29367 9.80853 9.21146 10.0076 9.11801L10.0777 9.67961C10.101 9.67961 10.1244 9.67961 10.1365 9.66749C10.4056 9.45722 10.5813 9.17599 10.6046 8.84802C10.6168 8.69573 10.5112 8.47334 10.3822 8.39113C10.2767 8.32104 10.043 8.35565 9.9141 8.42661C9.63287 8.54429 9.36375 8.74332 9.07127 8.93023ZM10.8149 6.91747C10.686 6.99967 10.5925 7.06977 10.487 7.13986C10.4515 7.16322 10.4169 7.20995 10.4169 7.24543C10.3113 7.70232 10.5804 7.99481 10.8616 8.31065C11.0494 7.84164 10.9906 7.38561 10.8149 6.91747Z" fill="#3B2050"/>
<path d="M8.91897 2.28275C8.94234 2.63407 8.9657 2.9378 9.00118 3.27788C9.20021 3.05549 9.36375 2.87983 9.53942 2.69291L9.57489 2.72839C9.5048 3.0676 9.4226 3.41893 9.34039 3.77025C8.16959 3.47777 7.04639 3.6067 5.96992 4.17955C5.81762 3.84034 5.65407 3.5245 5.47841 3.13769C5.72416 3.28999 5.93531 3.43018 6.18106 3.58248C6.13433 3.25451 6.0876 2.95078 6.02876 2.61071C6.40345 2.86858 6.73141 3.09097 7.08187 3.33672C7.19869 2.9854 7.31638 2.65743 7.44445 2.28361C7.65472 2.61157 7.8425 2.90405 8.04153 3.23202C8.34526 2.91444 8.61438 2.62196 8.91897 2.28275ZM1.69691 10.1711C1.67354 10.101 1.65018 10.0543 1.62682 9.99545C1.84921 9.902 2.05948 9.81979 2.29399 9.72634C2.36408 9.91325 2.43417 10.101 2.51638 10.3113C2.55186 10.3814 2.62195 10.4748 2.6332 10.5804C2.64531 10.7327 2.50426 10.7794 2.38744 10.8262C2.27062 10.8729 2.16505 10.9196 2.03612 10.9664C2.01275 10.9075 1.98939 10.8608 1.95391 10.7907C2.08285 10.7319 2.21178 10.6972 2.3286 10.6271C2.37533 10.6038 2.39869 10.5216 2.42206 10.4748C2.36321 10.4515 2.29312 10.4048 2.23514 10.416C2.11832 10.4394 2.00064 10.4982 1.86045 10.5562C1.83709 10.5095 1.81373 10.4506 1.77825 10.3926C1.90718 10.3338 2.03612 10.2992 2.14082 10.2291C2.18755 10.1936 2.21091 10.1235 2.23428 10.0655C2.17544 10.0534 2.10534 10.0067 2.04737 10.0188C1.95478 10.0655 1.83796 10.1244 1.69691 10.1711ZM4.21329 12.0437C4.27214 12.0904 4.31886 12.1259 4.37684 12.1726C4.18993 12.4071 4.01427 12.6295 3.81524 12.8753C3.93206 12.9687 4.03763 13.0622 4.16657 13.1678C4.13109 13.2145 4.09647 13.2612 4.04975 13.3201L3.52276 12.8986C3.75726 12.6174 3.97965 12.3362 4.21329 12.0437ZM7.33887 13.8583C7.47906 13.8349 7.5379 13.8817 7.50242 14.0106L7.46694 14.2564C7.43147 14.4666 7.28003 14.5956 7.08101 14.5609C6.87073 14.5376 6.75305 14.3974 6.76516 14.175C6.77727 14.0461 6.80064 13.9171 6.81189 13.7657C6.88198 13.7778 6.92871 13.7891 6.9988 13.8012C6.97544 13.9301 6.95207 14.0591 6.95207 14.1759C6.95207 14.246 7.01091 14.3394 7.06889 14.3628C7.16235 14.4095 7.23244 14.3273 7.2558 14.2339C7.29215 14.1153 7.31551 13.9872 7.33887 13.8583ZM1.96603 8.90687C1.86045 8.52093 1.59134 8.77793 1.38106 8.70784C1.38106 8.67236 1.36895 8.61438 1.3577 8.54429C1.60345 8.52093 1.83796 8.48545 2.06035 8.46209C2.08371 8.61438 2.09583 8.7312 2.10707 8.87139C2.0716 8.8835 2.02487 8.8835 1.96603 8.90687ZM2.93779 12.2895C2.90232 12.254 2.87895 12.2072 2.83222 12.1605L3.35921 11.7036C3.45267 11.8092 3.54612 11.9139 3.65169 12.0316C3.62833 12.0549 3.5816 12.0904 3.54612 12.125C3.24239 11.8568 3.14807 12.2315 2.93779 12.2895ZM2.23514 11.3064C2.19967 11.2476 2.1763 11.2009 2.14169 11.1429C2.35196 11.0261 2.55099 10.9084 2.77338 10.7916C2.80886 10.8504 2.83222 10.8971 2.87895 10.9551C2.65656 11.0728 2.44628 11.1775 2.23514 11.3064ZM3.02 10.5804C3.07884 10.6626 3.13682 10.7094 3.12557 10.7561C3.11346 10.8028 3.05548 10.8383 3.02 10.8729C2.98452 10.8374 2.91443 10.7907 2.90318 10.7561C2.89107 10.7094 2.96116 10.6626 3.02 10.5804Z" fill="#3B2050"/>
<path d="M8.33316 7.52581C8.67237 7.26794 9.00033 7.0343 9.39838 6.92873C9.48059 6.90537 9.57405 6.94084 9.65625 6.96421C9.7151 6.98757 9.76182 7.02305 9.8198 7.05766C9.90201 7.10439 10.0543 7.15112 10.0656 7.22121C10.101 7.38476 10.0777 7.56042 10.0777 7.73608C10.0777 7.75945 10.0543 7.78281 10.0422 7.79493C9.72635 8.0528 9.4105 8.3098 8.98908 8.41537C8.86015 8.45085 8.79006 8.41537 8.73121 8.29855C8.61439 8.04068 8.47421 7.79493 8.33316 7.52581ZM9.07129 8.93024C9.36377 8.74333 9.63289 8.55555 9.91412 8.40326C10.0543 8.33316 10.2767 8.29769 10.3823 8.36778C10.5112 8.44998 10.6168 8.67237 10.6047 8.82467C10.5813 9.15263 10.4056 9.433 10.1365 9.64414C10.1244 9.65626 10.101 9.65626 10.0777 9.65626L10.0076 9.09466C9.80855 9.18811 9.63289 9.28157 9.45723 9.36378C9.36377 9.4105 9.30493 9.38714 9.2582 9.28157C9.19936 9.16475 9.12927 9.02457 9.07129 8.93024ZM10.8149 6.91748C10.9906 7.38563 11.0607 7.83041 10.8617 8.32192C10.5804 8.00607 10.3113 7.70147 10.4169 7.25669C10.429 7.22121 10.4636 7.17448 10.487 7.15112C10.5804 7.06978 10.686 7.01094 10.8149 6.91748Z" fill="white"/>
<path d="M6.46056 13.706C6.32038 13.5892 6.17933 13.5892 6.0279 13.6826C5.88771 13.7648 5.82887 13.9518 5.8756 14.1274C5.92233 14.2797 6.05126 14.3732 6.22692 14.3732H6.32038C6.22692 14.5722 6.1101 14.5722 5.85223 14.3732C5.81675 14.4087 5.78214 14.432 5.73541 14.4787C5.9578 14.7833 6.35586 14.8067 6.47268 14.5255C6.57825 14.2797 6.62498 14.0218 6.70718 13.7648C6.61286 13.7406 6.5194 13.7527 6.46056 13.706ZM6.48393 14.0452C6.40172 14.0919 6.33163 14.1741 6.24942 14.1854C6.1326 14.1975 6.06251 14.1032 6.07376 13.9864C6.08587 13.8695 6.15596 13.7873 6.26067 13.8107C6.34288 13.8341 6.41297 13.9163 6.48306 13.963V14.0452H6.48393ZM2.43417 7.608H1.34558V7.79491C1.4624 7.79491 1.58009 7.80703 1.69691 7.80703C1.69691 7.88923 1.69691 7.95933 1.70902 8.0173C1.73238 8.21633 1.87257 8.34527 2.0716 8.34527C2.25851 8.34527 2.41081 8.22845 2.43417 8.04067C2.44628 7.90048 2.43417 7.7603 2.43417 7.608ZM2.16505 8.09951C2.14169 8.12287 2.01275 8.13499 2.0015 8.09951C1.94266 8.02942 1.9193 7.92385 1.87257 7.80703H2.27062C2.22389 7.92385 2.21178 8.02942 2.16505 8.09951ZM5.64196 13.4135C5.52514 13.3079 5.3962 13.2846 5.25602 13.3313C5.10372 13.3902 5.02151 13.5182 5.01026 13.6826C5.01026 13.8228 5.06911 13.9639 5.20929 14.0218C5.33823 14.0807 5.46716 14.1153 5.61859 14.162C5.71205 13.963 5.80551 13.7527 5.89983 13.5416C5.80551 13.4836 5.71205 13.4715 5.64196 13.4135ZM5.41957 13.8695C5.34947 13.8695 5.2439 13.7761 5.23266 13.706C5.20929 13.6004 5.2915 13.4957 5.40832 13.507C5.49052 13.5191 5.56062 13.5892 5.64282 13.6359V13.7181C5.55975 13.7761 5.48966 13.8695 5.41957 13.8695ZM4.91594 13.5182C5.05613 13.3426 5.05613 13.1669 4.92806 13.0267C4.79912 12.8865 4.57673 12.8632 4.42443 12.98C4.27214 13.0968 4.22541 13.3192 4.31886 13.4715C4.42443 13.635 4.62346 13.7172 4.83374 13.6117C4.76364 13.565 4.71692 13.5182 4.65807 13.4949C4.54125 13.4594 4.4478 13.4014 4.47116 13.237C4.62346 13.3547 4.76364 13.4369 4.91594 13.5182ZM4.84585 13.3201C4.72903 13.25 4.64683 13.1911 4.55337 13.1331C4.72817 13.0501 4.81037 13.0977 4.84585 13.3201ZM8.08739 14.4199C7.95845 14.49 7.87711 14.4433 7.81827 14.3031H8.33314C8.33314 14.0452 8.23969 13.905 8.04066 13.8704C7.87711 13.8349 7.70145 13.9293 7.63136 14.0928C7.56127 14.2685 7.61924 14.4675 7.76029 14.5731C7.91259 14.6786 8.13498 14.6432 8.27516 14.503C8.22844 14.3965 8.18171 14.3732 8.08739 14.4199ZM8.13498 14.1508H7.81913C7.92384 13.9872 7.99393 13.9872 8.13498 14.1508ZM3.16018 11.3886C3.07798 11.213 2.90231 11.1308 2.7154 11.1784C2.53974 11.2251 2.41081 11.3886 2.43417 11.5764C2.44628 11.7633 2.58647 11.9156 2.84347 11.9277C2.79674 11.8455 2.78463 11.7876 2.7379 11.7521C2.60897 11.6465 2.5856 11.5885 2.66781 11.4475C2.77338 11.5877 2.86684 11.7166 2.97241 11.8568C3.18355 11.7278 3.24239 11.5643 3.16018 11.3886ZM2.94991 11.611C2.89107 11.5288 2.84434 11.4475 2.78636 11.3765C2.79847 11.3644 2.80972 11.3532 2.82184 11.3298C2.88068 11.3653 2.95077 11.3886 2.98539 11.4354C3.02086 11.4821 3.00875 11.5522 3.02086 11.611H2.94991ZM2.23514 9.36376C2.22303 9.1881 2.10621 9.04792 1.93055 9.01244C1.74363 8.97696 1.56797 9.07128 1.49788 9.22271C1.41567 9.40962 1.48576 9.60865 1.68479 9.73759C1.70816 9.70211 1.74363 9.65538 1.767 9.62077C1.67354 9.49183 1.58009 9.37501 1.74363 9.22271C1.79036 9.40962 1.83709 9.56192 1.88382 9.73759C2.14169 9.67961 2.24726 9.56279 2.23514 9.36376ZM1.96602 9.51606C1.94266 9.39924 1.9193 9.30578 1.89593 9.1881C2.09496 9.28156 2.10707 9.37501 1.96602 9.51606Z" fill="#3B2050"/>
</svg>
