<svg width="24" height="22" viewBox="0 0 24 22" fill="none" xmlns="http://www.w3.org/2000/svg">
<path d="M1.64963 9.49875C8.0933 6.45075 12.3891 4.44113 14.537 3.47025C20.6767 0.697875 21.951 0.216375 22.7832 0.200063C22.9662 0.196875 23.3737 0.246 23.6396 0.479437C23.8606 0.676312 23.9228 0.942563 23.9538 1.1295C23.9815 1.31625 24.0194 1.74188 23.9884 2.07413C23.6569 5.86913 22.2169 15.0784 21.4848 19.329C21.1775 21.1275 20.5662 21.7305 19.9757 21.7894C18.6912 21.9176 17.7174 20.8684 16.4742 19.9837C14.5301 18.5989 13.4319 17.7371 11.543 16.386C9.36062 14.8245 10.7764 13.9661 12.0196 12.5636C12.3442 12.1965 18.0005 6.61087 18.1076 6.10425C18.1214 6.04087 18.1352 5.80462 18.004 5.68012C17.8762 5.55525 17.6863 5.598 17.5482 5.63175C17.3513 5.67975 14.2469 7.91025 8.22452 12.3229C7.34396 12.9806 6.54627 13.3012 5.828 13.2844C5.04067 13.266 3.52127 12.7999 2.39207 12.4016C1.01079 11.913 -0.0907762 11.6546 0.00591329 10.8248C0.054258 10.3928 0.603316 9.95063 1.64963 9.49875Z" fill="white"/>
</svg>
