<svg width="20" height="18" viewBox="0 0 20 18" fill="none" xmlns="http://www.w3.org/2000/svg">
<path d="M6.49568 9.79626L14.4801 16.8215C14.5724 16.9032 14.6843 16.9595 14.8049 16.9848C14.9255 17.0102 15.0506 17.0037 15.168 16.9661C15.2853 16.9285 15.3909 16.8609 15.4743 16.7702C15.5576 16.6795 15.616 16.5686 15.6436 16.4485L18.983 1.86513C19.011 1.73954 19.0044 1.6087 18.9638 1.48659C18.9232 1.36447 18.8503 1.25565 18.7527 1.17176C18.6552 1.08787 18.5366 1.03205 18.4098 1.01026C18.283 0.988472 18.1526 1.00153 18.0327 1.04804L1.63753 7.48709C0.9803 7.74465 1.06911 8.70384 1.76187 8.84595L6.49568 9.79626Z" stroke="white" stroke-linecap="round" stroke-linejoin="round"/>
<path d="M6.49567 9.79625L18.5833 1.0658" stroke="white" stroke-linecap="round" stroke-linejoin="round"/>
<path d="M10.4834 13.3044L7.71242 16.0754C7.61357 16.1758 7.4871 16.2446 7.34909 16.2729C7.21108 16.3012 7.06776 16.2879 6.93734 16.2346C6.80693 16.1813 6.69531 16.0904 6.61666 15.9735C6.53802 15.8566 6.4959 15.719 6.49567 15.5781V9.79626" stroke="white" stroke-linecap="round" stroke-linejoin="round"/>
</svg>
