<svg width="23" height="18" viewBox="0 0 23 18" fill="none" xmlns="http://www.w3.org/2000/svg">
<path d="M22.9233 2.17863C22.1052 2.5375 21.2334 2.77538 20.3246 2.89088C21.2596 2.33263 21.9732 1.45537 22.3087 0.398C21.4369 0.91775 20.4744 1.28488 19.4487 1.48975C18.6209 0.608375 17.4412 0.0625 16.1542 0.0625C13.6572 0.0625 11.6469 2.08925 11.6469 4.57387C11.6469 4.93138 11.6772 5.27513 11.7514 5.60238C8.00181 5.4195 4.68393 3.62238 2.45506 0.88475C2.06593 1.55988 1.83768 2.33262 1.83768 3.1645C1.83768 4.7265 2.64206 6.11112 3.84106 6.91275C3.11643 6.899 2.40556 6.68863 1.80331 6.35725C1.80331 6.371 1.80331 6.38888 1.80331 6.40675C1.80331 8.5985 3.36668 10.419 5.41681 10.8384C5.04968 10.9388 4.64956 10.9869 4.23431 10.9869C3.94556 10.9869 3.65406 10.9704 3.38043 10.9099C3.96481 12.696 5.62306 14.0091 7.59481 14.0518C6.06031 15.2521 4.11193 15.9754 2.00268 15.9754C1.63281 15.9754 1.27806 15.9589 0.923309 15.9135C2.92118 17.2019 5.28893 17.9375 7.84231 17.9375C16.1418 17.9375 20.6793 11.0625 20.6793 5.10325C20.6793 4.90387 20.6724 4.71137 20.6628 4.52025C21.5579 3.885 22.3101 3.09163 22.9233 2.17863Z" fill="white"/>
</svg>
