<svg width="19" height="14" viewBox="0 0 19 14" fill="none" xmlns="http://www.w3.org/2000/svg">
<rect x="1.52588e-05" width="19" height="14" rx="2" fill="white"/>
<mask id="mask0_92_4566" style="mask-type:luminance" maskUnits="userSpaceOnUse" x="0" y="0" width="19" height="14">
<rect x="1.52588e-05" width="19" height="14" rx="2" fill="white"/>
</mask>
<g mask="url(#mask0_92_4566)">
<path fill-rule="evenodd" clip-rule="evenodd" d="M19 0H1.52588e-05V0.933333H19V0ZM19 1.86667H1.52588e-05V2.8H19V1.86667ZM1.52588e-05 3.73333H19V4.66667H1.52588e-05V3.73333ZM19 5.6H1.52588e-05V6.53333H19V5.6ZM1.52588e-05 7.46667H19V8.4H1.52588e-05V7.46667ZM19 9.33333H1.52588e-05V10.2667H19V9.33333ZM1.52588e-05 11.2H19V12.1333H1.52588e-05V11.2ZM19 13.0667H1.52588e-05V14H19V13.0667Z" fill="#D02F44"/>
<rect x="1.52588e-05" width="8.14286" height="6.53333" fill="#46467F"/>
<g filter="url(#filter0_d_92_4566)">
<path fill-rule="evenodd" clip-rule="evenodd" d="M1.35715 1.86668C1.60699 1.86668 1.80953 1.65775 1.80953 1.40002C1.80953 1.14228 1.60699 0.93335 1.35715 0.93335C1.10731 0.93335 0.90477 1.14228 0.90477 1.40002C0.90477 1.65775 1.10731 1.86668 1.35715 1.86668ZM3.16667 1.86668C3.41652 1.86668 3.61906 1.65775 3.61906 1.40002C3.61906 1.14228 3.41652 0.93335 3.16667 0.93335C2.91683 0.93335 2.71429 1.14228 2.71429 1.40002C2.71429 1.65775 2.91683 1.86668 3.16667 1.86668ZM5.42858 1.40002C5.42858 1.65775 5.22604 1.86668 4.9762 1.86668C4.72636 1.86668 4.52382 1.65775 4.52382 1.40002C4.52382 1.14228 4.72636 0.93335 4.9762 0.93335C5.22604 0.93335 5.42858 1.14228 5.42858 1.40002ZM6.78572 1.86668C7.03557 1.86668 7.2381 1.65775 7.2381 1.40002C7.2381 1.14228 7.03557 0.93335 6.78572 0.93335C6.53588 0.93335 6.33334 1.14228 6.33334 1.40002C6.33334 1.65775 6.53588 1.86668 6.78572 1.86668ZM2.71429 2.33335C2.71429 2.59108 2.51176 2.80002 2.26191 2.80002C2.01207 2.80002 1.80953 2.59108 1.80953 2.33335C1.80953 2.07562 2.01207 1.86668 2.26191 1.86668C2.51176 1.86668 2.71429 2.07562 2.71429 2.33335ZM4.07144 2.80002C4.32128 2.80002 4.52382 2.59108 4.52382 2.33335C4.52382 2.07562 4.32128 1.86668 4.07144 1.86668C3.82159 1.86668 3.61906 2.07562 3.61906 2.33335C3.61906 2.59108 3.82159 2.80002 4.07144 2.80002ZM6.33334 2.33335C6.33334 2.59108 6.1308 2.80002 5.88096 2.80002C5.63112 2.80002 5.42858 2.59108 5.42858 2.33335C5.42858 2.07562 5.63112 1.86668 5.88096 1.86668C6.1308 1.86668 6.33334 2.07562 6.33334 2.33335ZM6.78572 3.73335C7.03557 3.73335 7.2381 3.52442 7.2381 3.26668C7.2381 3.00895 7.03557 2.80002 6.78572 2.80002C6.53588 2.80002 6.33334 3.00895 6.33334 3.26668C6.33334 3.52442 6.53588 3.73335 6.78572 3.73335ZM5.42858 3.26668C5.42858 3.52442 5.22604 3.73335 4.9762 3.73335C4.72636 3.73335 4.52382 3.52442 4.52382 3.26668C4.52382 3.00895 4.72636 2.80002 4.9762 2.80002C5.22604 2.80002 5.42858 3.00895 5.42858 3.26668ZM3.16667 3.73335C3.41652 3.73335 3.61906 3.52442 3.61906 3.26668C3.61906 3.00895 3.41652 2.80002 3.16667 2.80002C2.91683 2.80002 2.71429 3.00895 2.71429 3.26668C2.71429 3.52442 2.91683 3.73335 3.16667 3.73335ZM1.80953 3.26668C1.80953 3.52442 1.60699 3.73335 1.35715 3.73335C1.10731 3.73335 0.90477 3.52442 0.90477 3.26668C0.90477 3.00895 1.10731 2.80002 1.35715 2.80002C1.60699 2.80002 1.80953 3.00895 1.80953 3.26668ZM2.26191 4.66668C2.51176 4.66668 2.71429 4.45775 2.71429 4.20002C2.71429 3.94228 2.51176 3.73335 2.26191 3.73335C2.01207 3.73335 1.80953 3.94228 1.80953 4.20002C1.80953 4.45775 2.01207 4.66668 2.26191 4.66668ZM4.52382 4.20002C4.52382 4.45775 4.32128 4.66668 4.07144 4.66668C3.82159 4.66668 3.61906 4.45775 3.61906 4.20002C3.61906 3.94228 3.82159 3.73335 4.07144 3.73335C4.32128 3.73335 4.52382 3.94228 4.52382 4.20002ZM5.88096 4.66668C6.1308 4.66668 6.33334 4.45775 6.33334 4.20002C6.33334 3.94228 6.1308 3.73335 5.88096 3.73335C5.63112 3.73335 5.42858 3.94228 5.42858 4.20002C5.42858 4.45775 5.63112 4.66668 5.88096 4.66668ZM7.2381 5.13335C7.2381 5.39108 7.03557 5.60002 6.78572 5.60002C6.53588 5.60002 6.33334 5.39108 6.33334 5.13335C6.33334 4.87562 6.53588 4.66668 6.78572 4.66668C7.03557 4.66668 7.2381 4.87562 7.2381 5.13335ZM4.9762 5.60002C5.22604 5.60002 5.42858 5.39108 5.42858 5.13335C5.42858 4.87562 5.22604 4.66668 4.9762 4.66668C4.72636 4.66668 4.52382 4.87562 4.52382 5.13335C4.52382 5.39108 4.72636 5.60002 4.9762 5.60002ZM3.61906 5.13335C3.61906 5.39108 3.41652 5.60002 3.16667 5.60002C2.91683 5.60002 2.71429 5.39108 2.71429 5.13335C2.71429 4.87562 2.91683 4.66668 3.16667 4.66668C3.41652 4.66668 3.61906 4.87562 3.61906 5.13335ZM1.35715 5.60002C1.60699 5.60002 1.80953 5.39108 1.80953 5.13335C1.80953 4.87562 1.60699 4.66668 1.35715 4.66668C1.10731 4.66668 0.90477 4.87562 0.90477 5.13335C0.90477 5.39108 1.10731 5.60002 1.35715 5.60002Z" fill="url(#paint0_linear_92_4566)"/>
</g>
</g>
<defs>
<filter id="filter0_d_92_4566" x="0.90477" y="0.93335" width="6.33333" height="5.66663" filterUnits="userSpaceOnUse" color-interpolation-filters="sRGB">
<feFlood flood-opacity="0" result="BackgroundImageFix"/>
<feColorMatrix in="SourceAlpha" type="matrix" values="0 0 0 0 0 0 0 0 0 0 0 0 0 0 0 0 0 0 127 0" result="hardAlpha"/>
<feOffset dy="1"/>
<feColorMatrix type="matrix" values="0 0 0 0 0 0 0 0 0 0 0 0 0 0 0 0 0 0 0.06 0"/>
<feBlend mode="normal" in2="BackgroundImageFix" result="effect1_dropShadow_92_4566"/>
<feBlend mode="normal" in="SourceGraphic" in2="effect1_dropShadow_92_4566" result="shape"/>
</filter>
<linearGradient id="paint0_linear_92_4566" x1="0.90477" y1="0.93335" x2="0.90477" y2="5.60002" gradientUnits="userSpaceOnUse">
<stop stop-color="white"/>
<stop offset="1" stop-color="#F0F0F0"/>
</linearGradient>
</defs>
</svg>
