<svg width="16" height="11" viewBox="0 0 16 11" fill="none" xmlns="http://www.w3.org/2000/svg">
<g clip-path="url(#clip0_107_5967)">
<path d="M0 0.875H16V10.125H0V0.875Z" fill="white"/>
<path d="M0 0.875H16V1.58649H0V0.875ZM0 2.29799H16V3.0095H0V2.29799ZM0 3.721H16V4.43251H0V3.721ZM0 5.144H16V5.8555H0V5.144ZM0 6.56699H16V7.2785H0V6.56699ZM0 7.99H16V8.70149H0V7.99ZM0 9.413H16V10.1245H0V9.413Z" fill="#DC1F2B"/>
<path d="M0 0.875H7.075V5.875H0V0.875Z" fill="white"/>
<path d="M0 0.875V5.875H7.0725V0.875H0ZM0.775006 5.56249L0.605002 5.44L0.437507 5.56249L0.499992 5.37501L0.330004 5.2525H0.539992L0.562493 5.17999L0.602493 5.05499L0.642493 5.17999L0.667503 5.2525H0.874998L0.712505 5.37501L0.775006 5.56249ZM0.712505 4.37501L0.737499 4.45501L0.777499 4.5725L0.612497 4.45501L0.450004 4.5725L0.487495 4.45501L0.499992 4.37501L0.330004 4.2525H0.539992L0.602493 4.05501L0.667503 4.2525H0.874998L0.712505 4.37501ZM0.712505 3.395L0.777516 3.59251L0.607495 3.47L0.44 3.59251L0.500008 3.39251L0.330004 3.27H0.539992L0.602493 3.07251L0.667503 3.27H0.874998L0.712505 3.395ZM0.852497 2.30751L0.712505 2.41001L0.777516 2.6075L0.607495 2.4875L0.44 2.6075L0.500008 2.4075L0.357507 2.305L0.330004 2.285H0.539992L0.602493 2.0875L0.667503 2.285H0.874998L0.852497 2.30751ZM0.712505 1.4075L0.772497 1.59251V1.605L0.749996 1.59001L0.597507 1.48L0.445002 1.59L0.430013 1.60249V1.59L0.499992 1.405L0.330004 1.28249H0.539992L0.602493 1.08249L0.667503 1.28249H0.874998L0.712505 1.4075ZM1.36249 5.0625L1.195 4.93999L1.02499 5.0625L1.09 4.875L0.922493 4.75251H1.12999L1.195 4.55251L1.2575 4.75251H1.4675L1.2975 4.875L1.36249 5.0625ZM1.2975 3.875L1.36251 4.07251L1.195 3.95251L1.02499 4.07251L1.09 3.875L0.922493 3.75251H1.12999L1.19251 3.565L1.2525 3.75251H1.4625L1.2975 3.875ZM1.2975 2.89499L1.33999 3.02501L1.36249 3.0925L1.27 3.025L1.195 2.97001L1.11751 3.025L1.02499 3.0925L1.04749 3.025L1.09 2.89499L0.922493 2.7725H1.12999L1.195 2.57501L1.25 2.76751H1.46001L1.2975 2.89499ZM1.2975 1.91L1.36251 2.11L1.195 1.98751L1.02499 2.11L1.09 1.91L0.922493 1.78751H1.12999L1.19251 1.595L1.25 1.7825H1.46001L1.2975 1.91ZM1.9475 5.5675L1.78001 5.445L1.6125 5.5675L1.675 5.37499L1.50001 5.24H1.7075L1.7325 5.1675L1.7725 5.04249L1.8125 5.1675L1.83751 5.24H2.045L1.885 5.37499L1.9475 5.5675ZM1.885 4.37499L1.91 4.45499L1.9475 4.5725L1.78499 4.45501L1.6225 4.5725L1.66001 4.45501L1.675 4.37501L1.50001 4.25001H1.7075L1.77251 4.0525L1.83751 4.25001H2.045L1.885 4.37499ZM1.885 3.395L1.94749 3.59251L1.77999 3.47L1.6125 3.59251L1.675 3.395L1.50001 3.27H1.7075L1.77251 3.07251L1.83751 3.27H2.045L1.885 3.395ZM2.02499 2.305L1.885 2.4075L1.94749 2.605L1.77999 2.485L1.6125 2.605L1.675 2.4075L1.53501 2.305L1.49999 2.285H1.70749L1.7725 2.0875L1.83751 2.285H2.045L2.02499 2.305ZM1.885 1.405L1.94499 1.59V1.60249L1.93 1.59L1.7775 1.48L1.62499 1.59L1.61 1.60249V1.59L1.67 1.405L1.49999 1.28249H1.70749L1.7725 1.08249L1.83751 1.28249H2.045L1.885 1.405ZM2.53501 5.05999L2.365 4.9375L2.19751 5.05999L2.2625 4.875L2.0925 4.75251H2.3025L2.36499 4.55251L2.43 4.75251H2.63749L2.47 4.875L2.53501 5.05999ZM2.47 3.875L2.53501 4.07251L2.365 3.95251L2.19751 4.07251L2.2625 3.875L2.0925 3.75251H2.3025L2.36249 3.565L2.4225 3.75251H2.63L2.47 3.875ZM2.47 2.89499L2.51251 3.02501L2.53501 3.0925L2.44249 3.025L2.365 2.97001L2.29 3.025L2.19751 3.0925L2.21999 3.025L2.2625 2.89499L2.0925 2.7725H2.3025L2.36499 2.57501L2.43 2.7725H2.63749L2.47 2.89499ZM2.47 1.91L2.53501 2.11L2.365 1.98751L2.19751 2.11L2.2625 1.91L2.0925 1.78751H2.3025L2.36499 1.595L2.4275 1.78751H2.635L2.47 1.91ZM3.12 5.5675L2.95251 5.445L2.7825 5.5675L2.84751 5.3675L2.68 5.245H2.88749L2.9125 5.1725L2.95251 5.0475L2.99251 5.1725L3.01501 5.245H3.22499L3.05501 5.3675L3.12 5.5675ZM3.05499 4.37499L3.08249 4.45499L3.12 4.5725L2.95751 4.45501L2.79251 4.5725L2.8325 4.45501L2.8575 4.37501L2.69 4.2525H2.8975L2.96251 4.05501L3.02499 4.2525H3.23501L3.05499 4.37499ZM3.05499 3.395L3.12 3.59251L2.95251 3.47L2.7825 3.59251L2.84751 3.395L2.68 3.27251H2.88749L2.95251 3.075L3.01499 3.27251H3.22501L3.05499 3.395ZM3.19751 2.30751L3.05501 2.41001L3.12 2.6075L2.95251 2.4875L2.7825 2.6075L2.84751 2.41001L2.7075 2.30751L2.68 2.2875H2.88749L2.95251 2.09001L3.01499 2.2875H3.22501L3.19751 2.30751ZM3.05501 1.4075L3.11749 1.59251V1.605L3.1025 1.59251L2.95 1.48249L2.79751 1.59251L2.77999 1.605V1.59251L2.84 1.4075L2.6725 1.285H2.88L2.94501 1.085L3.00749 1.285H3.21752L3.05501 1.4075ZM3.70499 5.0625L3.5375 4.93999L3.37 5.0625L3.43249 4.865L3.26499 4.7425H3.47249L3.5375 4.5425L3.60251 4.7425H3.81L3.64249 4.865L3.70499 5.0625ZM3.64251 3.875L3.70499 4.07251L3.5375 3.95251L3.37 4.07251L3.43249 3.875L3.26499 3.75251H3.47249L3.5325 3.565L3.5925 3.75251H3.8L3.64251 3.875ZM3.64251 2.89499L3.685 3.02501L3.70499 3.0925L3.61501 3.025L3.5375 2.97001L3.46001 3.025L3.37 3.0925L3.39 3.025L3.4325 2.89499L3.26499 2.7725H3.47249L3.5375 2.57501L3.60251 2.7725H3.81L3.64251 2.89499ZM3.64251 1.91L3.70499 2.11L3.5375 1.98751L3.37 2.11L3.43249 1.91L3.26499 1.78751H3.47249L3.53501 1.595L3.59749 1.78751H3.80499L3.64251 1.91ZM4.2925 5.5675L4.12249 5.445L3.955 5.5675L4.02001 5.3675L3.85 5.245H4.06001L4.08249 5.1725L4.12249 5.0475L4.165 5.1725L4.1875 5.245H4.395L4.2275 5.3675L4.2925 5.5675ZM4.22749 4.37499L4.2525 4.45499L4.2925 4.5725L4.12749 4.45501L3.96249 4.5725L4 4.45501L4.0275 4.37501L3.8575 4.2525H4.0675L4.12999 4.05501L4.195 4.2525H4.40249L4.22749 4.37499ZM4.22749 3.395L4.2925 3.59251L4.12249 3.47L3.955 3.59251L4.02001 3.395L3.85 3.27251H4.06001L4.12249 3.075L4.1875 3.27251H4.395L4.22749 3.395ZM4.36749 2.30751L4.2275 2.41001L4.29251 2.6075L4.12249 2.4875L3.955 2.6075L4.02001 2.41001L3.87751 2.30751L3.85 2.2875H4.06001L4.12249 2.09001L4.1875 2.2875H4.395L4.36749 2.30751ZM4.2275 1.4075L4.28749 1.59251V1.605L4.27 1.59251L4.11751 1.48249L3.965 1.59251L3.95001 1.605V1.59251L4.01 1.4075L3.84 1.285H4.05L4.11249 1.085L4.1775 1.285H4.38499L4.2275 1.4075ZM4.87751 5.0625L4.71 4.93999L4.53999 5.0625L4.605 4.865L4.43751 4.7425H4.645L4.71001 4.5425L4.7725 4.7425H4.9825L4.8125 4.865L4.87751 5.0625ZM4.8125 3.875L4.87751 4.07251L4.71 3.95251L4.53999 4.07251L4.605 3.875L4.43751 3.75251H4.645L4.70499 3.565L4.765 3.75251H4.97501L4.8125 3.875ZM4.8125 2.89499L4.85501 3.02501L4.87751 3.0925L4.78499 3.025L4.71 2.97001L4.6325 3.025L4.53999 3.0925L4.56249 3.025L4.605 2.89499L4.43751 2.7725H4.645L4.71001 2.57501L4.7725 2.7725H4.9825L4.8125 2.89499ZM4.8125 1.91L4.87751 2.11L4.71 1.98751L4.53999 2.11L4.605 1.91L4.43751 1.78751H4.645L4.70749 1.595L4.77 1.78751H4.98001L4.8125 1.91ZM5.4625 5.5675L5.29501 5.445L5.12749 5.5675L5.19 5.3675L5.0225 5.245H5.23L5.25501 5.1725L5.29501 5.0475L5.33501 5.1725L5.36 5.245H5.56749L5.4 5.37501L5.4625 5.5675ZM5.4 4.37499L5.42499 4.45499L5.4625 4.5725L5.29999 4.45501L5.1375 4.5725L5.17501 4.45501L5.2 4.37501L5.03251 4.2525H5.24L5.30501 4.05501L5.37 4.2525H5.5775L5.4 4.37499ZM5.4 3.395L5.46248 3.59251L5.29501 3.47L5.12749 3.59251L5.19 3.395L5.0225 3.27251H5.23L5.29501 3.075L5.36 3.27251H5.56749L5.4 3.395ZM5.54001 2.30751L5.4 2.41001L5.46248 2.6075L5.29501 2.4875L5.12749 2.6075L5.19 2.41001L5.05 2.30751L5.0225 2.2875H5.23L5.29501 2.09001L5.36 2.2875H5.56749L5.54001 2.30751ZM5.4 1.4075L5.46001 1.59251V1.605L5.445 1.59251L5.2925 1.48249L5.13999 1.59251L5.125 1.605V1.59001L5.18499 1.405L5.0175 1.28249H5.22499L5.29 1.08249L5.35501 1.28249H5.56251L5.4 1.4075ZM6.05 5.0625L5.88 4.93999L5.7125 5.0625L5.77752 4.865L5.60749 4.7425H5.81752L5.88 4.5425L5.94501 4.7425H6.1525L5.98499 4.865L6.05 5.0625ZM5.98499 3.875L6.05 4.07251L5.88 3.95251L5.7125 4.07251L5.77752 3.875L5.60749 3.75251H5.81752L5.87751 3.565L5.93999 3.75251H6.14749L5.98499 3.875ZM5.98499 2.89499L6.0275 3.02501L6.05 3.0925L5.95751 3.025L5.88 2.97001L5.805 3.025L5.7125 3.0925L5.73501 3.025L5.7775 2.89499L5.60749 2.7725H5.81752L5.88 2.57501L5.94501 2.7725H6.1525L5.98499 2.89499ZM5.98499 1.91L6.05 2.11L5.88 1.98751L5.7125 2.11L5.77752 1.91L5.60749 1.78751H5.81752L5.88 1.595L5.94248 1.78751H6.15L5.98499 1.91ZM6.635 5.5675L6.4675 5.445L6.2975 5.5675L6.36251 5.3675L6.195 5.245H6.40249L6.4275 5.1725L6.4675 5.0475L6.5075 5.1725L6.53 5.245H6.75L6.57999 5.3675L6.635 5.5675ZM6.56999 4.37499L6.59751 4.45499L6.635 4.5725L6.4725 4.45501L6.3075 4.5725L6.3475 4.45501L6.3725 4.37501L6.205 4.2525H6.4125L6.47751 4.05501L6.53999 4.2525H6.75001L6.56999 4.37499ZM6.56999 3.395L6.635 3.59251L6.4675 3.47L6.2975 3.59251L6.36251 3.395L6.195 3.27251H6.40249L6.4675 3.075L6.52999 3.27251H6.75L6.56999 3.395ZM6.7125 2.30751L6.57 2.41001L6.63501 2.6075L6.4675 2.4875L6.2975 2.6075L6.36251 2.41001L6.2225 2.30751L6.195 2.2875H6.40249L6.4675 2.09001L6.52999 2.2875H6.75L6.7125 2.30751ZM6.57 1.4075L6.63249 1.59251V1.605L6.6175 1.59251L6.46499 1.48249L6.3125 1.59251L6.29499 1.605V1.59251L6.355 1.4075L6.1875 1.285H6.395L6.46001 1.085L6.52249 1.285H6.75L6.57 1.4075Z" fill="#1B304F"/>
</g>
<defs>
<clipPath id="clip0_107_5967">
<rect width="16" height="9.2608" fill="white" transform="translate(0 0.869629)"/>
</clipPath>
</defs>
</svg>
